<svg id="Ebene_2" data-name="Ebene 2" xmlns="http://www.w3.org/2000/svg" viewBox="0 0 411.69 591.53"><defs><style>.cls-1{opacity:0.35;}.cls-2{fill:none;stroke:#fff;stroke-miterlimit:10;}</style></defs><title>aareguru-pattern-hoch</title><g class="cls-1"><path class="cls-2" d="M0,16.92c4.66,3.79,7,10,7.67,15.67"/><path class="cls-2" d="M17,52.14c.46,7.52-10.37,8.9-11.75-7.25C4.76,38.83,2.84,34.45,0,31.77"/><path class="cls-2" d="M13.54,71.41C4.56,69.89,2.13,64.89,0,59"/><path class="cls-2" d="M0,72c10.92,9,12.8,23.86,0,41.75"/><path class="cls-2" d="M10.64,61c19.09,2.81,3.91,18,3.91,24.71s7.22,9.43,3.18,15.42S4.4,113.13,4,130.39"/><path class="cls-2" d="M0,188.7c3,6.1,3.67,13.22,0,22.27"/><path class="cls-2" d="M8.92,199c3.33,10.06-2.61,27.07-8.92,38.2"/><path class="cls-2" d="M14.92,208.83c4.65,8.69-4.17,19.75-7.47,26.8C3.89,243.26,2.82,255.34,0,266"/><path class="cls-2" d="M5.5,187c10.77,7.84,21,19.83,14.93,34.63"/><path class="cls-2" d="M10.39,271.12c1.8,9.34-1.07,23.41-10.39,32.95"/><path class="cls-2" d="M0,310.56a20.28,20.28,0,0,0,5.25-5.18c2.2-3.92,6.37-11,16.77-8.69"/><path class="cls-2" d="M0,313.3c4.63-3.28,10.46-6.44,15.29-6.7"/><path class="cls-2" d="M0,357c3.67-9.68,6-20.62,13.08-24.13"/><path class="cls-2" d="M11.37,390.79A34.74,34.74,0,0,1,0,417.08"/><path class="cls-2" d="M7.09,431.54c-.49,2-3.4,4.84-7.09,7.27"/><path class="cls-2" d="M394.87,490.39c-3.79,2.21-1.1,10.65,4.41,10.28s7.22-14.31,3.79-18"/><path class="cls-2" d="M397.44,510c-1.1-3.67,4.9-6.37,7.59-2.94s1.1,9.79,2.57,13.71c.62,1.63,2.32,3.24,4.09,4.57"/><path class="cls-2" d="M392.67,534.45c.21,7.34,16,26.12,2.95,57.08"/><path class="cls-2" d="M411.69,435.79c-6.36-7.1-13.66-15.93-6.91-25.54"/><path class="cls-2" d="M411.69,367.91c-6.52,17.69-14.93,33.22-13.7,52.25,1.09,16.7,8.12,25.58,13.7,34.48"/><path class="cls-2" d="M393,439.24c-2.94,5.14,1.83,13.4,5.5,15.42"/><path class="cls-2" d="M406.07,366c2.37-2.24,2-14,5.62-23.53"/><path class="cls-2" d="M23,470.82c1.94,16.92-11.64,26-23,34.35"/><path class="cls-2" d="M1.89,513.77c2.32,4.65.81,8.84-1.89,12.05"/><path class="cls-2" d="M7.39,522.58c.74,4.63-2.56,9.68-7.39,13.7"/><path class="cls-2" d="M15.84,498.72c-3.67,3.48-5.51,14.86-1.1,18.72"/><path class="cls-2" d="M0,546.94c6.54-3.24,12.18-8.72,13.82-15.36,2.75-11.2-16-20.38-4.59-29.74"/><path class="cls-2" d="M403.56,310.76c.48,5.83,4.38,10.3,8.13,12.87"/><path class="cls-2" d="M411.69,291.23c-4.91-5.77-10.62-8.42-10.33-13.63"/><path class="cls-2" d="M411.69,273.14c-4.19-5.84-8-11.39-5.81-17.2"/><path class="cls-2" d="M411.69,258.51c-4-5.47-7.73-10.36-7.15-13.7"/><path class="cls-2" d="M411.69,250.69c-12.14-14.42-12.1-51.7,0-69"/><path class="cls-2" d="M402.7,191.94c-3.42,5.26-6,21.78-4.4,27.9"/><path class="cls-2" d="M411.39,302.07c-9.79,8.08-18.6,1.1-16.27-17.38s8.32-17.25,7.46-33.28-10.16-29.61-10.16-29.61"/><path class="cls-2" d="M403.8,56.48c4.53,4.77,6.37,31.21,7,35.24a30.32,30.32,0,0,0,.91,3.73"/><path class="cls-2" d="M394.75,34.33c3.67.24,8.32,6.12,8.57,12.48"/><path class="cls-2" d="M397.18,0c-2,7.61,2.4,16.09,5.77,19,3.91,3.42,8.56,7.1,8.2,12.36a15.18,15.18,0,0,0,.54,4.78"/><path class="cls-2" d="M271.53,57.82c3.3,10.16-5.76,21.79-6.37,29.74s-1.22,17.62,1,21.17,5.14,6,6,9,1.22,33.9,26.67,22.28"/><path class="cls-2" d="M36.28,0C44,15.26,26.59,37.34,44.65,36.08"/><path class="cls-2" d="M42.82,22.22c-7.16,2.66-2.66,13.76,3.49,9.36"/><path class="cls-2" d="M27.59,0c14.28,17.86-5.12,32.18,12.2,48.56"/><path class="cls-2" d="M18.61,0c3.49,6.05,10.1,11.36,9.62,18.73"/><path class="cls-2" d="M10.86,0c3,9.33,12.85,14,12.78,24.51"/><path class="cls-2" d="M17.4,18.45c-5,9.64,3.3,23.5,8.81,20.93s.92-10-3.4-7.8"/><path class="cls-2" d="M4.56,0c8.54,8.59,3.68,26.59,8.25,36.63,5.08,11.16,22.21,14,21.11,33.13"/><path class="cls-2" d="M42.86,0c10.91,13.5,8,33.91,6.75,43C47.87,55.72,59.8,67.83,65.21,56.82"/><path class="cls-2" d="M22.35,52.5c6.43,5.51,4.87,14.32,2.3,21.84a22.74,22.74,0,0,0,.09,14.32"/><path class="cls-2" d="M59.89,31.21c-8.26,13.86,7.53,10.46,13.67,19.27s-9.21,25.45-3.3,32.12c5.69,6.43,15-2.29,15-2.29"/><path class="cls-2" d="M75.77,77.65s5-11.29,14.22-7.53,4,11.29,14.41,12.39"/><path class="cls-2" d="M50.13,0C52.5,15.7,64.65,36.27,81,42.59c18.26,7.07,22.94,8,31.38,26.71"/><path class="cls-2" d="M75.12,21.49C70.59,19.39,65.07,9,64.45,0"/><path class="cls-2" d="M71.82,10.93C82.1,13.86,81.46,26.44,85,29.74s8.72,2.94,7.06-2.2"/><path class="cls-2" d="M77.08,0c2.52,13,20.53,8.39,19,39.93"/><path class="cls-2" d="M86.71,0c2.48,6.92,9.65,4.51,12,9.74,2.85,6.33-1.65,8.44-1,13.12"/><path class="cls-2" d="M101.08,0c4.31,9,5.12,20.91,4,29.19"/><path class="cls-2" d="M101.92,21.11c-2.29,5.6-1.83,17.81,5,23.77"/><path class="cls-2" d="M74.39,44.61c6.06,10.92,19.92,8.17,26.71,15s2.2,12.66,7.71,15.6,17.8.92,20.28,15"/><path class="cls-2" d="M114.53,0C117,6.25,120.08,19.52,120,22.31"/><path class="cls-2" d="M117.25,24.69c-2.75,5.6-3.21,16.06,1.93,15.24s2.38-6.43,2.38-6.43"/><path class="cls-2" d="M136.8,49.29c4.77,2.85-.74,11.57-7.8-5.59-4.1-10-6.17-33.27-10.67-43.7"/><path class="cls-2" d="M124.75,0c4.83,8.45,7.44,23.61,5,36.44"/><path class="cls-2" d="M138.73,61.68c16.52,8.53,20.92,23.68,16.7,40.84"/><path class="cls-2" d="M139,36.81c-2.66,22.12,35.7,49.65,30.2,68.92"/><path class="cls-2" d="M151.48,17.54c.55,2.57-2.66,5.78-6.79,2-3.48-3.17-4.87-14.11-2.92-19.56"/><path class="cls-2" d="M150.84,42.69c4.59,1.83,2.29,11.74-2.94,9.17s-1.65-14.86-9-21.75c-6.27-5.88-8.59-21.46-4.38-30.11"/><path class="cls-2" d="M137.81,10.56c-1.75,16.43,10.64,14,16.7,24.87s-2,21.66,2,30.38c2.48,5.32,6.52,10,10.28,7.89s1.93-7.16-1.56-6.88"/><path class="cls-2" d="M150.56,25.34c9.55,2.93,17.44,20.09,10.19,37.81"/><path class="cls-2" d="M151.68,0c-1.9,19.5,17.47,25.53,16.32,39.57"/><path class="cls-2" d="M166.9,19.28c-9.25-3.14-10.54-12.9-6.57-19.28"/><path class="cls-2" d="M168.75,0c3.82,6.31,5.61,17.56,3.84,24.42"/><path class="cls-2" d="M175.76,0a19.59,19.59,0,0,1,1.33,16"/><path class="cls-2" d="M167.54,24.33c8.63,14.77,12.3,36.52,8.08,55.15"/><path class="cls-2" d="M170.76,45.16c-5.24,13.49,5,21.29,2.93,28.36"/><path class="cls-2" d="M183.6,12.58C166.35,42.31,192.69,52,178,82.88"/><path class="cls-2" d="M190.76,13.59c-7.89,8-9.73,17.34-7.43,26.25"/><path class="cls-2" d="M190.21,24.79c-9.45,20.83,4.5,37.62-8.17,57.91"/><path class="cls-2" d="M184.15.1c29.74,15.14-11.56,44.42,16.52,50.66"/><path class="cls-2" d="M199.42,0c4.32,6.53,2.55,15,.79,18.82"/><path class="cls-2" d="M207.24,0c2.61,5.23.95,12.89-2.35,17"/><path class="cls-2" d="M196.73,42.5c-1.55-18.93,20.62-25.31,21-42.5"/><path class="cls-2" d="M223.16.19c2.11,18.81-22.67,23.4-20.38,43.23"/><path class="cls-2" d="M211.5,30c7.25,22.66-19.09,40.65-19.73,54.14"/><path class="cls-2" d="M220.59,21c-3.58,2.48-4.41,6.7-3.67,10.37"/><path class="cls-2" d="M218.48,36.63c11-17.32,3.85-26.63,11.2-36.63"/><path class="cls-2" d="M224.53,45.47C237.22,32.55,228.31,11.14,236.92,0"/><path class="cls-2" d="M228.33,25.4c.24,2.81-.25,6.12-1.71,7.09"/><path class="cls-2" d="M224.78,36.65c-11.13,8.82.37,17.63-8.2,37.2a97.17,97.17,0,0,1-15.42,24.48"/><path class="cls-2" d="M216.83,54.52c-11.38,7.34-25,39-28.64,52.86"/><path class="cls-2" d="M193.7,55.13c3.3,9.42-5.31,19.72-6.61,27.41-2,11.63,4.16,11.87-7.46,35.24"/><path class="cls-2" d="M172.28,80.71c6.74,13.09,4.78,25.57-8.68,41.11"/><path class="cls-2" d="M39.39,42.16c18.73,19.46-1.94,41.51-1.22,50.17.94,11.38,13.67,6.88,8.08-1.1"/><path class="cls-2" d="M50.65,61.5c4.41,7,2.08,17.13-1.83,22.14"/><path class="cls-2" d="M69.37,59.17c-2.08,6.49-10.78,8.76-11.87,14.44-1.78,9.31,8,7.44,7.1,1.47"/><path class="cls-2" d="M55.3,83.52C61.79,98,34,110.32,32.91,124.27c-1.43,18.08,12.33,13.5,10.89,6.12"/><path class="cls-2" d="M38.05,127.33c14.82-6.27,13.35,5.11,16.76,9.79S69.25,142,69.25,142"/><path class="cls-2" d="M45.14,161.47c-7.21-12.11,5.63-19.21,21-15.05"/><path class="cls-2" d="M27.4,132.47C22.75,149,30.83,161.1,42.82,165.39S66.68,162,65.21,155.11s-13.21-3.43-15.78.73"/><path class="cls-2" d="M36.21,107c-19.16,16.23-19.5,36.88-12.6,48.58,7.81,13.25,24.42,17.21,24.23,30.47"/><path class="cls-2" d="M29.36,45.71c27.9,40.14-14.78,53.47-14.44,103.65.24,36.34,30.47,56.53,30.35,75.5"/><path class="cls-2" d="M28.87,73.85C37.68,92.7,11.1,99.4,7.21,142.14c-2.45,26.92,14,38.17,19.58,52.61s2.57,24.48,13.09,34"/><path class="cls-2" d="M214.62,61.74c.49,5.75-2.08,16-8,25"/><path class="cls-2" d="M180.12,88.66c7.46,35.73-30.35,36.22-31.82,71.71"/><path class="cls-2" d="M144.39,149.36c2.32,9.3-1,39-25.82,57"/><path class="cls-2" d="M140.59,153.15c-2.94,23.62-39.28,30.59-41.6,61.55"/><path class="cls-2" d="M162.74,94.66c3.92,12.48-2,28.14-6.36,35.12s-13.71,13.09-16.77,17.13-4.28,16.4-21.17,24.72"/><path class="cls-2" d="M131.29,156.21c-6,.37-20.8,8.81-21.78,20.68"/><path class="cls-2" d="M36.82,174.2c-3.91,7.09,1.23,14.07,8.08,16.52"/><path class="cls-2" d="M23.85,162.94c-.73,14.56,22.64,34.87,26.07,47.48s7.71,31.69-19.46,20.92"/><path class="cls-2" d="M56.16,215.19c1.59,3.43,12.85,8.2,12.85,17.13"/><path class="cls-2" d="M60.07,171.38c-30.1,45.28,15.54,39.28,18.6,55.31"/><path class="cls-2" d="M70.84,165c-28,38.18,3.31,42.7,10.16,56.78"/><path class="cls-2" d="M158.21,110.2c-6.73,26.31-32.38,9.89-40.87,14.68-12.36,7-3.3,14.93-19.09,25.21s-19.45.73-34.14,15.54"/><path class="cls-2" d="M99.84,153.52c-8.2,9.3-29.37,7-34.14,30.71"/><path class="cls-2" d="M78.67,171.63c-11.25,9.3-12.6,33.16,8.69,48.09"/><path class="cls-2" d="M85.16,174c-7.34,11.14-5.75,28.88-1.35,34.14"/><path class="cls-2" d="M148.91,128.8c-2.08,10-27.38,23.95-35.73,30.83-14,11.51-11,32.55.86,19.34"/><path class="cls-2" d="M110.49,156c-14.56,9.79-6.61,30.23-16.64,37"/><path class="cls-2" d="M123.7,146.3c1.35-1.84,6.37-5.14,8.57-5.39"/><path class="cls-2" d="M136.8,134.3c-10,1.11-21.29,10.53-21.91,19.09"/><path class="cls-2" d="M135.82,130.51c-18.36,2.33-30.16,13.94-32.06,22.76-3.3,15.3-11.75,18.72-14.2,25.82s-1.71,18.23-1.1,22.39"/><path class="cls-2" d="M254.55,0c13,33.94-5.91,45.87-5.42,52.57s7.34,6.85,2.08,17.5"/><path class="cls-2" d="M235.18,37.88c-9.18,10.77-1,29-14,45.27"/><path class="cls-2" d="M224.29,92.33c-.24,1.35-.61,4.41-2.32,6.37"/><path class="cls-2" d="M198.59,111.05c-15.41,7.22-12.48,31.94-21,39.77"/><path class="cls-2" d="M224.66,51.34c-.74,17.25-7.34,53-32.8,75.74"/><path class="cls-2" d="M207.77,95.64c.61,2.57-.12,9.91-4.28,12.23"/><path class="cls-2" d="M176,123.9c2.08,4.78-2.82,18.36-7,20.81"/><path class="cls-2" d="M223.92,87c-6.6,5.38-7.12,9.42-7.22,12.85-.24,8.68-6.66,9-6.85,16-.24,8.93-20.68,22.88-20.68,22.88"/><path class="cls-2" d="M169.72,130.76c.24,3.42-2.57,10.27-2.57,10.27"/><path class="cls-2" d="M158.33,143.85c.25,4.89-1.34,10.52-3.05,11.75"/><path class="cls-2" d="M145.73,167.71a6.43,6.43,0,0,1-.73,4.77"/><path class="cls-2" d="M124.32,193.77c-3.31,1.6-5,4.78-5,6.74"/><path class="cls-2" d="M0,141c1.4,8-.72,17.44,1.46,25.22,3.42,12.23,21.05,25.33,24.72,43.44S5.62,246.76,5,261.08c-.5,11.73,6.8,19.84-5,33.7"/><path class="cls-2" d="M105.72,191.33C80.39,203,100.58,215.19,92,227.92S69.13,242.84,51.14,240"/><path class="cls-2" d="M86.75,239.79c-3.92,4.77,7.83,13,.24,19.57-8.39,7.32-18-2.08-16.27-7.46s9.54-.49,9.54-.49"/><path class="cls-2" d="M66,246.27c-10.4,7.59-2.57,20.93,9.17,20s18.48,3.3,18.36,15.54"/><path class="cls-2" d="M31.68,277.11C11.37,271,4.76,251.65,19.08,241.62s28.15-3.55,33.53,7.59,1.47,19.45,11,21.41,20.88-3.88,24.11,8.08c5,18.6,10.28,39.28-1,54.45S39.76,351.63,30,364"/><path class="cls-2" d="M25,254c14.2,6.36,19.58,30.47,4.65,39.16"/><path class="cls-2" d="M19.45,245.66c13.7-6.61,30.22,6.73,29.37,25.94S38.54,301.83,15.53,301"/><path class="cls-2" d="M0,319.39c17.5-8.87,48.51-16.46,50.53-31.75"/><path class="cls-2" d="M0,326.7c12.48-14.06,37.34-16.65,45.51-24.63"/><path class="cls-2" d="M0,339.32c7.15-12.49,18.44-22.88,27.65-23.54"/><path class="cls-2" d="M0,367.54c7.39-16.12,16.45-35.72,28.5-43.68"/><path class="cls-2" d="M0,382c8.51-21.14,23.14-48.18,35.48-53.89"/><path class="cls-2" d="M87.36,318c-.85,11.5-24.1,26.92-35.24,29.73"/><path class="cls-2" d="M63,279.92c21.29.74,31.08,33.65,5.38,52.74S31.81,339.51,7.7,383.93"/><path class="cls-2" d="M79.29,298.64c.12,12.49-6.73,31.21-25,38.3"/><path class="cls-2" d="M69.45,316.18c-3.42,12-37.2,26.43-40.75,34.5"/><path class="cls-2" d="M77.94,294.24c-7.22.86-1.84,9.3-3.92,13.58s-10.64,3.92-12.84,7.59-6.12,12.11-14.2,17"/><path class="cls-2" d="M53.47,316.88c-2.7,11.87-32.68,28-38.43,45.4"/><path class="cls-2" d="M28.14,372.92c-10.16,5.39-10.41,13.83-8.45,22.39"/><path class="cls-2" d="M83.2,341.35c-8.93,12.73-25.57,13.83-37.08,23.74s-18,34-33.65,43.2"/><path class="cls-2" d="M0,428.76c20.84-14.84,44.47-42.6,47.47-53.63"/><path class="cls-2" d="M13.7,421.38c15.66-9.79,50.78-44.54,52.25-63.27"/><path class="cls-2" d="M98.13,326.3c-8.08,18.11-22.76,27.9-27.66,35.12s-19.21,34.87-19.21,34.87"/><path class="cls-2" d="M38.54,405.84C43.59,414.09,27.69,435.3,0,452.09"/><path class="cls-2" d="M0,444.77c12.85-8.08,27.36-20.33,28.5-25.47"/><path class="cls-2" d="M0,460.34c7.63-9.52,17.46-18.49,26.05-21.46"/><path class="cls-2" d="M101.92,305.62c8.08,29.92-22.57,48.09-32.85,66.26s-14.32,45-36.16,59.84"/><path class="cls-2" d="M94,264c8.81,16.71-.55,35.61,5.14,48.83"/><path class="cls-2" d="M106.88,201.73c1.65,14-13.4,22.94-13.77,39.83s10.47,25.15,9.91,37.26"/><path class="cls-2" d="M100.7,234.4c6.85,4.65-.24,9.42.37,16.15s10.4,22.89,6.85,47.36"/><path class="cls-2" d="M114.28,237.83c-7.58,2.32-9.42,11-6.85,18.72s5.38,26.92,4.28,36.22"/><path class="cls-2" d="M103.64,287c-5.63,5.14-2.32,13.75,4.89,14.81,10.89,1.59,31-30.72,36.22-27.9"/><path class="cls-2" d="M114,269.15c4.4,3.67-1.79,15.29,3.91,17,10.53,3.18,17.38-20.19,26.68-18.35"/><path class="cls-2" d="M145.73,278.21c-10.16,2.57-25.82,20.31-14.07,22.39"/><path class="cls-2" d="M165.43,274.66c-13.58,2.57-25.08,11.87-26.18,21.41"/><path class="cls-2" d="M158.7,283c-9,33.16-38.79,15.79-45.76,21.9"/><path class="cls-2" d="M134.72,307.33a14.75,14.75,0,0,0-11.26,10.4"/><path class="cls-2" d="M166.78,278.7c5.26,22.27-33.16,49.07-47,48.46s-11.26-12-7.1-13.71,6.73,2,6.12,5.87"/><path class="cls-2" d="M129,214c-.62,4,10.28,3.42,4.16-6.73"/><path class="cls-2" d="M128.35,201.85c1.35,5.75-4.28,15.79-8.44,16.77"/><path class="cls-2" d="M107.92,236.24c3.18-8.57,13.34-18.48,19.46-16.52s4.65,11.38-2.82,16.39"/><path class="cls-2" d="M125.54,224c1.71,4.53-3.06,10.28-5.63,11.87"/><path class="cls-2" d="M10.64,453.81c-7.1,3.91-4.6,13.82,1.1,12.48,13.46-3.18,20.19-30.84,35.36-31.21"/><path class="cls-2" d="M46,431.05c8.32-9.55,32.31-8.33,40.14-16.16"/><path class="cls-2" d="M64.23,415.38c10.77-8.07,23.25-1,31-8.2s2.82-24.35,14.2-25.45"/><path class="cls-2" d="M128.84,357.5c-31.57.37-23.25,38.55-49.8,47.85"/><path class="cls-2" d="M89.69,365.58c-2.45,16.89-23,35.73-29.37,39.28"/><path class="cls-2" d="M146.71,349.3c-11.38,5-24.11-2.08-37.2,7.1S87.12,394,69.62,406.94s-27,19.82-31.08,26.92"/><path class="cls-2" d="M67.78,386.87c7.22-23,34.75-43.31,54.7-42.09,48.09,2.93,38.52-16.54,45.4-16.28,6.49.25,2.6,7,5.14,11.5s8.08,3.68,7.83,10.16"/><path class="cls-2" d="M144.63,246.64c5.14,8.44,22.15,2.08,20.92,22.64"/><path class="cls-2" d="M138.88,190.23c-4.41,7,.12,9.3.37,21.17s-5.51,8.93-5.39,19.82,7.59,12.85,7.59,12.85"/><path class="cls-2" d="M163.84,134.79c.61,23.5-20.43,40.87-20.31,52.5s3.06,10.52,3.55,20-13.71,37.32,8.56,39"/><path class="cls-2" d="M152,178.85c1.47,5.5-5.26,10.89-1.34,18.6"/><path class="cls-2" d="M166.41,152.05c-15.29,17.25,3.31,24.84-7.34,47.11"/><path class="cls-2" d="M156.13,180.07c-2.32,7.34.49,12.73-1,18.84s-8.8,12.18-4.65,25.58c8.08,26.06,35.12,49.8,17.38,77.34S99.72,333.27,88.1,354.44"/><path class="cls-2" d="M0,497.3a29.74,29.74,0,0,0,14.67-13.63c5.63-11.5,3.31-20.44,16.16-30.35s25.2-8.44,29.49-18.11"/><path class="cls-2" d="M411.69,566.88c-7.18-25.61-30.81-56.71-29.06-68.16"/><path class="cls-2" d="M411.69,542.71c-9.24-17-27.26-33.85-20.61-59.9"/><path class="cls-2" d="M395.36,558.07c1.53,6.3-3.1,22.55-10,33.46"/><path class="cls-2" d="M365.62,576.55a20.3,20.3,0,0,1,1.45,15"/><path class="cls-2" d="M388.14,473.87c2,22.28-24.68,30.93-30.71,49.69-13.59,42.21,29,66.44,35.73,28.14"/><path class="cls-2" d="M383.74,521c-2.21,4.77,5.63,14.07,6.36,21.9s1.1,24.72-15.91,24"/><path class="cls-2" d="M384.59,465.5c.92,33.59-42.11,41.82-41.85,64.24.34,29.59,16.28,32.24-3.85,61.79"/><path class="cls-2" d="M353.57,518.54c-16.09,35.23,13.45,42.64,6.14,73"/><path class="cls-2" d="M338.34,533.59c5.52,25.59.34,42.65-10.17,57.94"/><path class="cls-2" d="M375.41,449.16c6.43,55.62-27.9,46.07-38.73,76.72-10.47,29.68,5.87,22.37-22.38,65.65"/><path class="cls-2" d="M335.4,513.58c-5.69,6.43-5.87,33.23-10.09,38.73"/><path class="cls-2" d="M363.48,485c-5.32,21.11-34.76,20.94-40.56,34.87-8.63,20.74,1.65,29.19-11.56,36.53"/><path class="cls-2" d="M338.15,500c-12.11,5.69-39.09,22.76-36.71,55.62"/><path class="cls-2" d="M368.62,462.37c-2.57,15.6-12.29,25.88-17.62,27.9s-8.44-2.75-13.76.37-23.13,28.27-40.94,22.58"/><path class="cls-2" d="M385.51,413.73c.55,9.55-8.81,7.71-13.4,16.34s-1.47,13.95-3.49,19.09-9.91,11.38-11.19,14.86,1.83,9.55-2.57,14.5-16,4.59-20.38,8.26-12.85,16.34-28.63,19.28"/><path class="cls-2" d="M355.41,457.05c-10.83,1.83-19.83,12.48-21.66,16.52"/><path class="cls-2" d="M330.44,477.43c.92,13.95-32.12,15.05-38.17,32.49s4.22,24.59,5.5,30.65-1.28,11-.37,18c.86,6.54,10.92,14.05,6.87,33"/><path class="cls-2" d="M285.66,476.87c7.16-19.45,23.13-10.28,22.21-2.57s-28.82,16.16-31.39,21.29"/><path class="cls-2" d="M313.74,467c-4.22,5.51,3.67,11.2,10.28,7.89s10.46-12.48,15.42-16.33,25.51-7.34,21.29-22.76"/><path class="cls-2" d="M279.78,445.49c-3.12,10.27,4,30.83-4.58,41.29"/><path class="cls-2" d="M258.13,449.34c-1.11,8.44,4.58,17.44,7.34,19.46"/><path class="cls-2" d="M254.27,457.42c-.92,11,9.55,23.31,16.7,18.9s5.14-13.4.37-16.7"/><path class="cls-2" d="M248.76,453.19c-1.46-5.5,2.94-7.7,3.49-12.11s-3.12-23.49,14.5-38.36,31-7.34,36.71-10.46.37-9.73,17.26-9.92"/><path class="cls-2" d="M322,375c17.44-11,46.07-7,55.8,8.81s5.14,36-13.58,39.28"/><path class="cls-2" d="M349.9,340.31c-2.2,7.16,1.47,20.92,8.81,23.68"/><path class="cls-2" d="M390.65,366.19c4.59,14.5-.92,35.24-3.3,39.65"/><path class="cls-2" d="M396.16,310c11.93,23-1.66,94.35-6.61,117.84s-2,45.34,7.52,44.61,7.71-15.24-.91-9.91"/><path class="cls-2" d="M356,269.46c-17.81,29.73-.37,39.65,4,49.93s.55,25.33.55,25.33"/><path class="cls-2" d="M334.67,354.81c7-5.87-.37-14.68-9-7.34s.19,21.47-17.62,32.67S276.3,382,261.8,393.91s-17.07,39.46-17.07,39.46"/><path class="cls-2" d="M315.39,355.54c-18.9,20-66.63,2.57-80.21,72.69"/><path class="cls-2" d="M246.56,408.77C235,433,233,472.83,263.63,491.56"/><path class="cls-2" d="M244,439.79c-2.2,9,1.29,26.62,7.9,31.94s20.37,20,20.92,32.49"/><path class="cls-2" d="M324.57,481.28c-13.58,2.75-48.64,9.36-46.8,34"/><path class="cls-2" d="M296.3,494.5c-11.93,7.52-15.41,18.54-13,30.1s6.24,17.8,8.44,31.57c1.9,11.83-6,25.29-7.4,35.36"/><path class="cls-2" d="M150.2,355.36c-9,4.77-11,23.31-7.16,28.82"/><path class="cls-2" d="M160.84,346.73c-7,14.32,12.12,17.07,19.64,16.89s17.44,2.57,19.83,8.08,13.76,20.92,2.2,33.4-22.58,7.16-22.58,7.16"/><path class="cls-2" d="M156.62,386.93c-5.87,3.86-2.38,8.45,7.16,10.65s19.09,10.64,2.39,17.07"/><path class="cls-2" d="M148,388.22c-11.74,12.85,6.8,37.26,18.54,21.29"/><path class="cls-2" d="M168,342.33c-4.59,11.38,10.28,17.25,19.09,14.68s19-.83,19.82,9.18c1.29,15.42,16.16,25.51-4.58,45.71"/><path class="cls-2" d="M214.62,358.48c-7.71,7.71,6.24,24.23.37,39.47"/><path class="cls-2" d="M186.54,416.67c-25.33,1.65-53.6,17.43-59.65,29"/><path class="cls-2" d="M213.52,404.37c-7.52,33-51-2-91.41,54.88"/><path class="cls-2" d="M218.66,374.08c6.43,19.64,3.12,44.61-19.27,53.05s-55.62,2.75-72.5,31.2-6.24,30.11-3.31,30.11,5.88-6.8,2-9.92"/><path class="cls-2" d="M152.22,442.92c-13.4,4.22-25.52,29.91-25.52,29.91"/><path class="cls-2" d="M211.87,427c-7.52,8.26-42.4,5.14-50.29,14.5s-14,26.06-28.27,29.18"/><path class="cls-2" d="M201.22,469.16c-3.3-9,8.08-28.45-7.89-30.1S176.45,448.24,168,456s-20,8.44-20,8.44"/><path class="cls-2" d="M145.61,352.42c-10.46,3.86-14.87,17.07-10.28,30.11s9.36,39.46.73,45.52-7.71-5.88-4.77-7.9"/><path class="cls-2" d="M134.41,357.56c-17.07,11.93-4.4,35.06-4.59,46.26s-7.89,28.08-7,36"/><path class="cls-2" d="M121.75,385.28c-4.22,6.24,5.5,29.92-1.29,41.12"/><path class="cls-2" d="M53.65,431c44.6-9.91,67.18-38.91,65.89-65.89"/><path class="cls-2" d="M116.42,413.18c-10.83,13.4,9.37,29.37,1.66,42.22S97.7,468.06,95.32,476.87s13.39,13,14.13,2"/><path class="cls-2" d="M106.88,422.36c-16.15,11.56,18.91,21.66-.18,38.18"/><path class="cls-2" d="M97.33,429.15c-3.12,5.32,3.49,17.8,9.92,18.9"/><path class="cls-2" d="M92.2,435.39c.55,9.73-7.71,22.58-15.79,26.06"/><path class="cls-2" d="M108.35,418.87c-20,4.22-22.58,23.31-27.35,31s-28.45,21.66-28.64,40.75"/><path class="cls-2" d="M84.67,429.7c-10.65,6.61-2,19.82-12.3,26.06"/><path class="cls-2" d="M115.14,397c5,18-33.22,27.53-40.2,36.16s.18,31-30.65,40.38"/><path class="cls-2" d="M48.33,448.42C25,454.66,29.42,465.31,35.48,462.19"/><path class="cls-2" d="M17.86,511.57C28.74,521.13,29.7,550.08,0,554.42"/><path class="cls-2" d="M0,566.9c13.4-7.65,29.22-23.91,29.79-32.76"/><path class="cls-2" d="M0,590.09c15.51-7.43,29.25-26.16,32-36.67"/><path class="cls-2" d="M70.72,433.55c-14.87,9.37-6.61,13.59-12.11,21.3S30.89,471,31.81,486.6,45,499.08,44.1,491.19"/><path class="cls-2" d="M70.17,466c-.18,5-3.49,6.24-5.32,7.53"/><path class="cls-2" d="M59.71,481.64c-2.94,3.31-4.41,9.18-3.12,12.3"/><path class="cls-2" d="M55.48,472.47c-8.81,6.61-7.89,25.88-4.4,34.87"/><path class="cls-2" d="M56.4,442.92c-6.24,18.53-24.58,23.57-31,44.23-8.81,28.27,14.69,32.67,8.81,52.68s-21.66,25.33-21.66,25.33"/><path class="cls-2" d="M27,503.12c9.37.37,18.91,12.48,17.07,28.08s-8.07,17.26-5.69,29,19.28,11.75,18,1.11"/><path class="cls-2" d="M46.67,518.54c13.77,8.44-9.91,28.63-.36,44.42"/><path class="cls-2" d="M18.09,591.53A32.41,32.41,0,0,0,32.91,565"/><path class="cls-2" d="M34.79,591.53A21.81,21.81,0,0,0,39,585.91c2-4.59-1.1-9.55,7.35-12.3"/><path class="cls-2" d="M50.9,544.42c13.56,11.53,17.26,35.43-2.07,47.11"/><path class="cls-2" d="M55.12,527.72c-9.88,19.58,29.81,19.12,7.43,63.81"/><path class="cls-2" d="M98.25,493.94c.74,21.66-42,7.53-38.73,44.06"/><path class="cls-2" d="M107.43,489.17c-.92,24.41-35.24,34-37.26,41.67"/><path class="cls-2" d="M107.61,507.53c-1.28,15.6-28.08,14.86-29.36,24.41"/><path class="cls-2" d="M62.09,532.12c12.12,3.67,8.08,21.11,11.57,27.17s9.17,3.67,7.16-2.21"/><path class="cls-2" d="M79.9,540.93c56.53-12.85,21.66-60,37.07-75.07"/><path class="cls-2" d="M122.48,497.43c11.93,31-32.3,43.69-31.94,50.84S101,554.33,101,554.33"/><path class="cls-2" d="M132.76,478.89c-8.08,16.34,3.12,33.59,14.32,28.08"/><path class="cls-2" d="M158.09,464.21c-5.51,2-14.5,6.24-8.63,19.64"/><path class="cls-2" d="M144,476.32c-3.12,9.18,9.72,29.92,17.43,31.94"/><path class="cls-2" d="M151.48,504.77c3.67,6.79,13.22,12.12,18.17,5.88"/><path class="cls-2" d="M132.58,508.63c-9.92,5.32-5.51,16.15-2,15.78s3.3-4.59,1.1-6.79"/><path class="cls-2" d="M137.35,516.52c8.81,2.39,9.36-3.86,15.05-3.3s8.63,5.5,15.6,5.32,12.12-10.46,14.87-10.28"/><path class="cls-2" d="M71.82,591.53c1.62-8,7-21,18-25.45,13.76-5.5,20.19-12.66,22-22.57s25.15-24,49.56-21.3"/><path class="cls-2" d="M91.83,571.58c-7.34,3.31-11,15.42-11,20.38"/><path class="cls-2" d="M117.16,555.07c-14.5,5.69-23.86,27.34-22.76,36"/><path class="cls-2" d="M114,567.73c16-41.3,80.94-41.67,85.35-79.66"/><path class="cls-2" d="M141.2,529.55C124.5,533,115,544.05,117,548.46s6.06,2.2,6.43-1.47"/><path class="cls-2" d="M108.7,591.53c2.63-12.46,23.71-43.47,38.19-51.51"/><path class="cls-2" d="M115.32,591.53c6.81-15.08,22.81-41.13,33.78-48.39"/><path class="cls-2" d="M121.74,591.53c1.72-4.15,7.92-14.78,12.12-20.49"/><path class="cls-2" d="M188.56,514.87c.92,14-39.46,27-44.6,40-3.88,9.85-6,24.51-14.62,36.64"/><path class="cls-2" d="M135.26,591.53c3-10.79,9.2-25,16-28.38"/><path class="cls-2" d="M193.15,516.7c9.54,12.3-5,18.17-11,20s-22.95,8.63-29.37,19.27"/><path class="cls-2" d="M140.38,591.53c9.31-24.88,30.58-46.09,44.87-50.59"/><path class="cls-2" d="M154.94,591.53c4-7.65,5.05-17.73,11.59-28.93,9.55-16.34,21.29-11.2,24.6-21.85"/><path class="cls-2" d="M199.76,504.41c-9.36,8.25,6.74,18,5.5,27.71-2.2,17.26-36.52,23.5-39.28,43.69"/><path class="cls-2" d="M204.35,490.27c-9.92,9.91,18.17,17.26,7.52,42.59s-28.63,23.86-29.18,45"/><path class="cls-2" d="M162.94,591.53c11-10.87,7.78-28.56,30.57-38.11"/><path class="cls-2" d="M192.23,563.15c.48,12.7-8.06,24.14-14.24,28.38"/><path class="cls-2" d="M211.14,555.25c.14,13.72-8.69,28.82-16.55,36.28"/><path class="cls-2" d="M251.52,529.92c6.51,23.35-26.55,42-33.87,61.61"/><path class="cls-2" d="M211.32,445.67c-19.27,42.95,17.44,58.55,15.6,79.11S197.92,547,195.35,574"/><path class="cls-2" d="M215.36,474.49c2.38,20.37,31.75,32.85,31,53.41s-34.33,32.49-32.67,60.2"/><path class="cls-2" d="M303.1,521.11c-5.33,2.94-5.33,8.26-3.68,12.48"/><path class="cls-2" d="M313.74,529.74c-6.79,3.12-8.26,16.51-4,18s3.67-5,3.67-5"/><path class="cls-2" d="M307.13,553.78c-5.32,9.18.74,19.82,7,19.09s8.26-12.85.92-11.75"/><path class="cls-2" d="M218.66,516.89c4.77,7.16-1.47,18-4.77,20.19"/><path class="cls-2" d="M233.16,455.21c6.79,43,60,35.25,41.67,137.12"/><path class="cls-2" d="M258.13,362c.73,20.56-34.51,36.71-30.11,80s34.69,63,34.69,63"/><path class="cls-2" d="M231.88,404.92c-21.66,47.36-.12,78.3,17.07,94.17,39.21,36.19,15,68.29,1.63,92.44"/><path class="cls-2" d="M223.8,467.15c1.28,34.24,72.85,66.85,7.78,124.38"/><path class="cls-2" d="M186.17,346.92s-.55,4,4.77,3.86,2.47-11.17,14.32-5.33c27.9,13.77,20.21,45.59,11.38,85-7.16,31.94-11,47.35,5.14,67.55s24.6,29.36,10.1,46.25c-10.58,12.33-22,31.39-27.25,47.29"/><path class="cls-2" d="M255,321.59c16.88,62.59-49.38,57.27-34.33,155.47"/><path class="cls-2" d="M331.73,351c-7.89,2.75-4.59,12.48,3.3,12.48s18.73-17.62,4.78-33.59"/><path class="cls-2" d="M235.18,328c15.24-5.87,20.56,10.83,14.69,22s-12.3,7.16-17.26,34.69"/><path class="cls-2" d="M206.91,267.81c-16.15,58.92,27.54,71.58,22.21,106.82"/><path class="cls-2" d="M196.27,328c0,2.94,3.49,9,6.06,11.2"/><path class="cls-2" d="M167.63,221.37c.56,19.27,25,8.63,18.36,45.7"/><path class="cls-2" d="M187.27,233.12c20.93,42.4-41.84,94.34,5.33,105.72"/><path class="cls-2" d="M204.35,77.46c-8.45,31.21-31.76,62-35.06,81.32s1.83,17.07,0,28.63-6,14.68-6.61,23.86c-1.47,20.56,15,50.11,14.87,60.76"/><path class="cls-2" d="M175.71,244.31c12.12,24.41,8.44,80.4-53.41,93.8"/><path class="cls-2" d="M167.08,204.85c-3.67,18.54,29.74,11.38,28.09,34.69"/><path class="cls-2" d="M189.66,316.26c5.51,2,2.75,10.65-1.28,10.28s-9.73-12.84-3.49-30.83,31.75-57.09,6.42-73.79"/><path class="cls-2" d="M225.64,363.8c-1.84-17.62-33.41-37.44-32.49-67.36,1.2-39.19,49.74-80.21,17.8-97.46"/><path class="cls-2" d="M228,245.6c-15.05.55-17.07,15.6-15.23,25.51s2.94,31.94-2.94,38.18"/><path class="cls-2" d="M173.14,190.72c-6.24,9.91-.92,17.07,2.57,19.08s11.75-.73,14.5,1.11,1.29,5.5,3.31,6.79,6.6-.37,9.72,2.2,2.57,6.24,3.67,7.16a9,9,0,0,1,3.68,5.87"/><path class="cls-2" d="M177.36,195.86c-.73,9.36,6.61,8.62,9,8.07s7.89,2,9.17,4.77S208,210,212.6,221"/><path class="cls-2" d="M176.63,165.57c-6.24,14.32,1.44,26.41,6.24,27.16,13.95,2.21,11.75,9.73,18.35,10.83s13.77,2.94,15.06,11.57"/><path class="cls-2" d="M225.27,253.49c-10.28,2.75-7.16,14.87-4.22,23.49s-2.94,25.33-2.94,25.33"/><path class="cls-2" d="M242.71,335.9c5.69,5.88-5,16.34-11.57,12.3s-10.28-20.55,10.47-34.32,45.52-7.71,46.25-30.1"/><path class="cls-2" d="M254.82,287.63c-4.95,9.55-36.16,13.4-38,35.06"/><path class="cls-2" d="M286.21,256.61c.18,39.83-62.41,50.11-63.14,65.9"/><path class="cls-2" d="M280,257c1.1,9.91-5.88,27.53-25,36.71"/><path class="cls-2" d="M242.16,273.13c.36,4.22,7.71,7.71,10.64,5.14"/><path class="cls-2" d="M243.07,286.53s13.22-1.65,15.06-6.42"/><path class="cls-2" d="M266,272.21c5.51-2,7.16-9.54,7.16-9.54"/><path class="cls-2" d="M324.94,263c6.61,15.06-4,39.65-11.2,27.35"/><path class="cls-2" d="M311.91,306.17c6,.55,7.34,2,7.34,5.69s-3.67,6.79-3.31,9.18,2.76,6.42,2.76,9.73-11,9.72-11,13.39"/><path class="cls-2" d="M278,355.36s-15.05,9-16.52-.73,3.06-10.37,5-21.48c2.75-16.15,28.26-23.86,29-33.4.36-4.76.91-11.2,2.2-14.69s13-8.81,11.38-23.49,3.3-21.3,2.57-26.43-10.65-33.23-10.65-33.23"/><path class="cls-2" d="M290.25,212.37c-8.45,8.45,1.1,11.75,3.3,13.95s-2.38,5.51,2.75,18"/><path class="cls-2" d="M281.8,210c-9.91,3.85-2.2,15.42,5.33,24.78s15.78,31.57-6.06,51.58"/><path class="cls-2" d="M271.16,335.54c-.37-9.36,3.67-10.28,7.89-8.81s9.55-2.21,13.22-2.21,14,7.35,1.1,18.91"/><path class="cls-2" d="M280.89,322a6.43,6.43,0,0,1,6.24-6.05c2.2.18,4.59,4,6.79,3.85s7.16-6.42,8.07-.18"/><path class="cls-2" d="M305.67,350c28.45-14.87,22.21-52.31,25.51-53.6"/><path class="cls-2" d="M261.06,370.78c3.86-13.77,44.79-5,61.68-25.88s19.82-56.72,15.6-78-10.65-25.51-9.91-39.1,18.53-27.16,4.4-67"/><path class="cls-2" d="M342.74,196.41c.55,3.3,4.78,8.44,7.71,8.81"/><path class="cls-2" d="M342.38,207.79c-9.73,5.32-4.23,22.94,1.46,22.94s7.9-10.28,3.12-12.48"/><path class="cls-2" d="M325.67,165.75c-8.26,2.21-7.89,20.93.19,21.11s7.71-12.3,1.65-13.58"/><path class="cls-2" d="M317.23,245.41c5,19.46-9.73,31.57-10.83,47.91s11,47.36-16.52,62.22"/><path class="cls-2" d="M262,232.75s.37-10.65,6.79-11.38,18.36,14.68,20.19,28.82"/><path class="cls-2" d="M222.88,261.93c6.8,1.47,12.85-6.79,14.69-11.19s9.91-9,13.58-13,13.77-23.86,23.86-26.79"/><path class="cls-2" d="M259.59,219.17c-11.38,4.58-5.14,15.6-22.76,24"/><path class="cls-2" d="M227.84,208.52c8.08,5.51-10.83,24.78-2.94,31s22.58-9.18,21.11-12.3-11.75,2.57-13.76,6.06"/><path class="cls-2" d="M316.13,200.63c-19.27,12.66,48.82,94-3.67,99.12"/><path class="cls-2" d="M327.51,95.45c1.65,70.12,29.92,95.82,29.37,124.45s-15.79,47-13.4,84.07,34.14,71.77,43.5,81.68"/><path class="cls-2" d="M327.32,135.83c4.23,15.24-13.68,30.29-13.58,37.63.19,13.58,15.6,20.38,5.88,47"/><path class="cls-2" d="M320.53,150.52c-.91,11.38-22,22.76-21.29,32.67s6.61,12.85,8.26,7.71"/><path class="cls-2" d="M284.74,197.69c-1.1,9.06-10.52,7.83-12.24,9.55s-1.34,3.79-4.89,5-9.91,0-13,1.59-7.1,5.88-9.18,7.35S234.08,223,233,226"/><path class="cls-2" d="M192.48,189.25c5.26,7.46,21.41,2.2,27,4.65s10,9.66,13.83,10.89S244,203,251.21,210.91"/><path class="cls-2" d="M228.08,187.41c11.51-.12,12.12,6.49,16.4,7.1s16.52-1.1,21.91,3.91"/><path class="cls-2" d="M246.68,190.1c4.41.62,7.59,1.84,11,2.21s5.26-.86,7.34.36a10.11,10.11,0,0,1,3.3,3.55"/><path class="cls-2" d="M261.12,188c4,.25,7.35,2.33,8.2,4.53"/><path class="cls-2" d="M334.79,185.82c2,6.61-8.08,9.3-8.08,15.17s2.69,4.65,2.57,8.08-5.63,7.59-6.24,12.36,2.08,4.16,2.57,6.85-2.94,5.51-.12,10.53"/><path class="cls-2" d="M320.35,122.31c8.93,23.74-26.55,43.08-26.92,67.3s12.73,43.32,5.38,76"/><path class="cls-2" d="M237.38,12.79c12.85,18.6-.85,36.35-2.2,42.71s.61,40.14-21.53,60.57"/><path class="cls-2" d="M191.25,143.73c-5.26,1.59-18.23,16.76-19.33,23.12"/><path class="cls-2" d="M191.86,150.09c-10,4.65-14.07,19.46-5.63,21.66"/><path class="cls-2" d="M205.2,131.49c-8.81,2.32-12.48,11.5-8.81,17.87"/><path class="cls-2" d="M210.83,122.8c3.67,5.51-2.57,16-8.32,17.87"/><path class="cls-2" d="M222.58,110.69C222,126.47,203,155.11,188.93,161.1"/><path class="cls-2" d="M232.12,120.48c-.61,20.19-34.38,43.93-43.44,46.5"/><path class="cls-2" d="M235.18,139.69c1.23,11.5-8.44,15.91-14.19,19.7s-9.79,13-15.79,15.05"/><path class="cls-2" d="M232.86,131.37c-6.73,5.63-3.67,13.09-9.18,18.23s-13.83,8.81-17.13,12.11-3.43,6.49-8.2,9.67-16.15,6-16.64,12.12"/><path class="cls-2" d="M233.35,88.54c-4.16,10-1,19.33-3.67,26.31s-6.86,10.64-8.08,14.8-6.85,15.18-12,18.73"/><path class="cls-2" d="M226.37,111.42a20.17,20.17,0,0,1-1.83,7.47"/><path class="cls-2" d="M235.06,105.43s6.61-10.89,7.1-18.36-2.08-15.66-2.33-24.84,4.77-16.88,6.85-32.06c1.81-13.17-4-20.35-2.09-30.17"/><path class="cls-2" d="M236.41,80.1c1.59,4.16,1.71,12.23-.74,14.68"/><path class="cls-2" d="M245.22,90.25c.36,3.67-2.21,9.3-4,11.26"/><path class="cls-2" d="M236.65,108.85c-1.71,2.2-2.08,5.88-1.47,7.34"/><path class="cls-2" d="M244.73,75.57c6.85,15.29,4.16,27.29-1.23,33.65s-8.69,15.54-4.89,26.67-1.35,24.72-4.65,27.42"/><path class="cls-2" d="M239.83,126c0-13.71,13.22-13.34,13.09-33.9s-9-18.6-9.17-30.35,9.17-23.37,10.15-33.16c.87-8.69-5.77-19.78-4.55-28.58"/><path class="cls-2" d="M245.22,123.66c-5.76,9.91,6.36,16.4,4,32.67s-23.74,29.49-31.93,25.7-.13-16,6.24-10.65"/><path class="cls-2" d="M390.47,305.86c-8.81-6.85-9.79-2.08-7.22,4.16s8.68,14.44,8.93,23.74"/><path class="cls-2" d="M386.43,307.09c15.05,16.39,12.36,42.7-1.35,57.14"/><path class="cls-2" d="M367.09,349.55c1.47,8.32,10.45,17.6,18.11,7.1,22.52-30.84-37.81-65.47-23.86-94.59"/><path class="cls-2" d="M373,312.72c6,9.79,16.76,35.61,6.24,40.38s-7.83-28.15-14.93-35.86"/><path class="cls-2" d="M358.28,238.93c-3.18,14.93,12.49,19.7,8.94,36"/><path class="cls-2" d="M369.66,282.86s-1.34,11.5,6.61,12.24,14.93-9.55,6.61-23.74-21.17-16.28-21.78-36"/><path class="cls-2" d="M372,234.52c6.12-5.63,15.91-4.16,19.21,11.14s-4,11.5-3.79,21.9,6.24,10,.61,30.47"/><path class="cls-2" d="M369.66,198.67c-3.3,21.17,13.95,20.68,16.4,32.3"/><path class="cls-2" d="M367.71,232c9.3-2.57,5.75-8.68,1.1-13.46-3.71-3.8-7.59-16.39,1.1-36.22s7.95-30.59,7.46-33.4"/><path class="cls-2" d="M381,160.61c-6.11,12.36-10.27,40.63-3.79,53.11"/><path class="cls-2" d="M391.2,157.8a24.78,24.78,0,0,1,1.47,29.73"/><path class="cls-2" d="M388.39,147.76c11.25,5.88,19,17,14.44,31.33s-9.3,10-7.71,19.09-.62,13.22-3.43,13.22-5.63-4.16-3.43-7.35"/><path class="cls-2" d="M382.51,150.46c9.3,17.86-2.93,26.8-.49,49.07s20.56,44.78,11.14,67.54"/><path class="cls-2" d="M384.35,248.23c-12.48,9.3-24.11-11.5-23-28.76s-.73-34.51-12-51.64-24-57.75-16.15-102.54"/><path class="cls-2" d="M259.77,0c10.82,18.08.88,46.34-2.07,77.41-3.92,41.21.49,82.23,27.16,80.52"/><path class="cls-2" d="M252.07,111.91c-8.93,13.46,7.22,23.13,8.44,37.45"/><path class="cls-2" d="M277.77,154.49c3.05-3.67,2.08-6.11,1-7.58s-14.68-5.26-14.07-22.52"/><path class="cls-2" d="M274,0c11.63,15-4.74,31.46-1.77,45.35"/><path class="cls-2" d="M276.3,39c13.7,26.68-23.13,60.57,17,52.25"/><path class="cls-2" d="M255.86,146.3c-1,10.52,7.1,15.54,14.2,15s4.65,3.79,13.58,3.06"/><path class="cls-2" d="M269,0c4.77,12.64-.06,21.85-.49,30.3-.48,9.66,1.23,11.87.37,21.17s-6,16.52-6.73,22.63.61,5.75.49,12.61-7.22,13.09,1.35,27"/><path class="cls-2" d="M285.35,77.89c3.55-1.1,9.3,1,10.77,4.41"/><path class="cls-2" d="M291.84,59.78c9.3,4.77,14.19-2.69,14.32-7.83s-5.27-13.09-10.41-3.67"/><path class="cls-2" d="M279.81,0c.68,13.77,10.41,34.87,10.19,44.12-.24,10.53-11,31-10,36.84s8.07,6.36,10.64,3.91"/><path class="cls-2" d="M287.68,17.32c4.16,17.74,27.53,18.6,24.47,42.34"/><path class="cls-2" d="M287.78,0c-2.73,27,48,35.53,32.32,79.37"/><path class="cls-2" d="M297.47,15c-3-3-5-8.31-4.84-15"/><path class="cls-2" d="M311.78,29.44c-3.87-3.88-12.52-19.26-9-29.44"/><path class="cls-2" d="M311.35,0c-8.25,27.94,27.55,43.79,12.3,90"/><path class="cls-2" d="M321.45,19.16c-3.67,15.9,13.34,19.94,16.28,45.76s-6.37,35.49,1.95,33.29"/><path class="cls-2" d="M323.38,0c-1,4.82,2.44,18.84,2.11,26.75"/><path class="cls-2" d="M329,0c-3.4,19.35,2.56,43.82,16.95,54.77,14.81,11.26,31.94,36,11.87,48"/><path class="cls-2" d="M303.59,72.26c9.3,13.22,8.56,39.9,6.73,45.4s-5.63,14.93-4.9,18.6-2.2,9.42-4.53,10.65-6.36,5.38-6.85,12.6-1.47,8.69-2.32,10.65"/><path class="cls-2" d="M311.29,77c8,10.64,2.21,25.82,2.33,31.08s2.94,12,2.2,19.58-7.71,13.58-8.93,18.84-2.57,14.44-6.24,18.85-11.26,10.52-11.38,15.29-.49,24.11-3.67,30.47"/><path class="cls-2" d="M345.56,112.4c4-4.53,10.89-4.28,13.21,2.45"/><path class="cls-2" d="M339.32,55.62c.73,4.77,6.12,4,7.22,8.93s2.2,13.1-3.31,12.73"/><path class="cls-2" d="M353.51,71c5.88,3.55,6,7.34,5.39,9.54s-3.68,4-3.55,7.71,2.08,3.8,2.2,6.37-6.12,5.38-6.12,5.38"/><path class="cls-2" d="M350.82,77.89c1.71,10.53-10.89,29.49-9.67,44.91.9,11.35,5.39,24.84,6.85,27.29"/><path class="cls-2" d="M345.19,134.55c.25,3.67,2.57,10.16,5,13.09"/><path class="cls-2" d="M364.4,112.4c-3.55-4.53-.85-8.81,2.82-8.81s5.26,6.49,1.22,15.17S364,133,367.58,141c5,11.14-2.69,25.95-2.08,37.33"/><path class="cls-2" d="M348.62,154.13c-1,2.69,4.4,5.26,5.75,8s-.37,4.53,0,6.85,2.57-.73,3.3,1.59-.49,5.63.12,6.61,3.19.61,3.68,2.21.61,8.93,1,9.78"/><path class="cls-2" d="M371.25,84.62c5.27,7.71,9.67,23.74.13,35.49"/><path class="cls-2" d="M354.24,56.73C340,48.2,330.46,18.86,334.48,0"/><path class="cls-2" d="M363.06,65.17C365,74.47,377.13,77.89,381.17,96s0,23.5-1.59,25.46-6.37,1.83-6.73,4.4,3.3,11.5,1.83,18"/><path class="cls-2" d="M344.21,34.57c2.45,9.18,42.71,36.84,41.73,66.33"/><path class="cls-2" d="M358.53,35.68c-.49,3.91,3.06,10.89,6.48,12"/><path class="cls-2" d="M338.34,19.28c-.12,10.4,15.05,13.21,15.91,20.68"/><path class="cls-2" d="M392.06,119.13c.24,7.59-12.85,16.28-12.24,22.76"/><path class="cls-2" d="M390,132.71c-3.55,2.45-2.94,8.45-.13,10.28"/><path class="cls-2" d="M339.27,0c-4.44,9.86,4.45,26.23,12.89,28.34,8.81,2.2,18.85,8.32,18.48,19.33s6.43,14.55,13.22,19.46c9.3,6.73,16.76,48-2.69,59.1"/><path class="cls-2" d="M376.15,41.18c-2.82,8.57,7,16.89,13,22.64s9.3,22.39,8.32,42.71-5.14,28.39,3.06,41.85,8.2,23.12,6.61,30.22"/><path class="cls-2" d="M345.07.44c1,23.25,34.87,24.72,49.56,58.61s3.54,59.72,7.46,75.26a64.55,64.55,0,0,0,9.6,20.6"/><path class="cls-2" d="M385.57,25c4.53,7.47,9.06,19.46,11.75,21.91,1.78,1.62,9.66,5.43,14.37,15.34"/><path class="cls-2" d="M381.78,29.44c1.59,6.48,9.17,19.7,12.85,22.76s12.48,22.76,12,41.48a83.77,83.77,0,0,0,5.07,30.2"/><path class="cls-2" d="M371.5,17.57s.61-7.1,8.07-7.46,9.06,12.23,12.24,15.66,5.63,1.59,8.2,5.38A223,223,0,0,1,411.69,52.5"/><path class="cls-2" d="M380.8,15.61c1.59,8.45-2.94,11.38-12.24,8.08-8.38-3-16.37-14.32-14.63-23.69"/><path class="cls-2" d="M385,0c-.27,7.55,8.08,15.23,12.48,19.41,3.29,3.12,9.9,14.21,14.25,23.5"/><path class="cls-2" d="M57.72,0c4.51,21.32,15.86,35.77,26.21,40,11.84,4.87,16.89,3.95,25.89,11.57s3.67,15.51,11.65,20.56S144.4,88.84,139,97.2c-5.69,8.81-16.52-1.1-16.52-1.1"/><path class="cls-2" d="M296,66.76c3.42,3.55,2,13,3.67,16.27s4.77,7.47,5.14,12.36-2.57,12.12-2.2,14.56,3.18,6.24.73,16.52-10.89,12.24-15.54,10.89-6.73-9.66.12-11.13"/><path class="cls-2" d="M268.83,92c.37,4.17,3.8,5.88,8.69,6.12s3.43,3.06,6,3.18,5.26-2.32,7.46-1.83,2.45,3.67,4.65,3.92"/><path class="cls-2" d="M185.87,186.19c8.81-6.73,20.31-6.73,28.26.24s12.73,2.69,17.87,4.78,1.22,4.77,5.26,6.48,13-.73,18.23.86,5.63,6.24,8.82,7.22,6.11-2.45,7.83-3.06,4.52-1,5.38-3.18-.37-6.73,2.94-8.32,5.26-4.41,4.89-9.55.61-9.42,2-10,2.81-6.37,2.08-8"/><path class="cls-2" d="M132.76,178.36c-1.59,9.79-12.85,8.93-15.91,14.93s-1.59,12.84-3.18,17.25-13,12.73-9,16.4,11.38-3.67,7.95-6.24"/><path class="cls-2" d="M125.51,43.32c-2.29,12.94,18.47,28.81,23.22,42.4,4.59,13.13,5.07,23,.46,28.64-13,15.88-24.41,2.11-34.69,2.11-11.38,0-7.71,11.65-7.71,11.65"/><path class="cls-2" d="M107.72,0c11.17,12.32.32,29.41,2.92,39.66,2.85,11.19,11.29,12.39,14.41,17.53s1.41,8.27,3,11.56c3.12,6.33,25.52,15.3,18.45,36.34-3.27,9.72-11.18,12.55-16.22,10-20.32-10.27-37.2,1.47-29,13.82"/></g></svg>