<svg id="Ebene_2" data-name="Ebene 2" xmlns="http://www.w3.org/2000/svg" viewBox="0 0 591.53 411.69"><defs><style>.cls-1{opacity:0.35;}.cls-2{fill:none;stroke:#fff;stroke-miterlimit:10;}</style></defs><title>aareguru-pattern-quer</title><g class="cls-1"><path class="cls-2" d="M16.52,411.69c3.79-4.66,10-7,15.67-7.67"/><path class="cls-2" d="M51.74,394.66c7.52-.46,8.9,10.37-7.25,11.75-6.06.52-10.44,2.44-13.12,5.28"/><path class="cls-2" d="M71,398.15c-1.52,9-6.52,11.41-12.45,13.54"/><path class="cls-2" d="M71.63,411.69c9-10.92,23.86-12.8,41.75,0"/><path class="cls-2" d="M60.61,401.05c2.81-19.08,18-3.91,24.72-3.91s9.42-7.22,15.41-3.18,12,13.34,29.25,13.7"/><path class="cls-2" d="M188.3,411.69c6.1-3,13.22-3.67,22.27,0"/><path class="cls-2" d="M198.64,402.77c10.06-3.33,27.07,2.61,38.2,8.92"/><path class="cls-2" d="M208.43,396.77c8.69-4.65,19.75,4.17,26.8,7.47,7.63,3.56,19.71,4.63,30.33,7.45"/><path class="cls-2" d="M186.65,406.19c7.83-10.76,19.82-21,34.63-14.92"/><path class="cls-2" d="M270.72,401.3c9.34-1.8,23.41,1.07,32.95,10.39"/><path class="cls-2" d="M310.16,411.69a20.28,20.28,0,0,0-5.18-5.25c-3.92-2.2-11-6.37-8.69-16.77"/><path class="cls-2" d="M312.9,411.69c-3.28-4.63-6.44-10.46-6.7-15.29"/><path class="cls-2" d="M356.64,411.69c-9.68-3.67-20.62-6-24.13-13.08"/><path class="cls-2" d="M390.39,400.32a34.74,34.74,0,0,1,26.29,11.37"/><path class="cls-2" d="M431.14,404.6c2,.49,4.84,3.4,7.27,7.09"/><path class="cls-2" d="M490,16.82c2.2,3.79,10.64,1.1,10.27-4.41S486,5.2,482.29,8.62"/><path class="cls-2" d="M509.58,14.25c-3.67,1.1-6.37-4.9-2.94-7.59s9.79-1.1,13.71-2.57c1.63-.62,3.24-2.32,4.57-4.09"/><path class="cls-2" d="M534.05,19c7.34-.21,26.12-16,57.08-2.95"/><path class="cls-2" d="M435.39,0c-7.1,6.36-15.93,13.66-25.54,6.91"/><path class="cls-2" d="M367.51,0c17.69,6.52,33.22,14.93,52.25,13.7,16.7-1.09,25.58-8.12,34.48-13.7"/><path class="cls-2" d="M438.85,18.66c5.14,2.93,13.4-1.84,15.41-5.51"/><path class="cls-2" d="M365.61,5.62c-2.24-2.37-14-2-23.53-5.62"/><path class="cls-2" d="M470.42,388.69c16.92-1.94,26,11.64,34.35,23"/><path class="cls-2" d="M513.37,409.8c4.65-2.32,8.84-.81,12,1.89"/><path class="cls-2" d="M522.18,404.3c4.63-.74,9.68,2.56,13.7,7.39"/><path class="cls-2" d="M498.32,395.85c3.48,3.67,14.86,5.51,18.72,1.11"/><path class="cls-2" d="M546.54,411.69c-3.24-6.54-8.72-12.18-15.36-13.82-11.2-2.75-20.38,16-29.74,4.59"/><path class="cls-2" d="M310.36,8.13c5.83-.48,10.3-4.38,12.87-8.13"/><path class="cls-2" d="M290.83,0c-5.77,4.91-8.42,10.62-13.63,10.33"/><path class="cls-2" d="M272.74,0c-5.84,4.19-11.39,8-17.2,5.81"/><path class="cls-2" d="M258.11,0c-5.47,4-10.36,7.73-13.7,7.15"/><path class="cls-2" d="M250.29,0c-14.42,12.14-51.7,12.1-69,0"/><path class="cls-2" d="M191.54,9c5.26,3.42,21.78,6,27.9,4.4"/><path class="cls-2" d="M301.67.3c8.08,9.79,1.1,18.6-17.37,16.28S267,8.25,251,9.11,221.4,19.27,221.4,19.27"/><path class="cls-2" d="M56.08,7.89c4.77-4.53,31.21-6.37,35.24-7A30.32,30.32,0,0,0,95.05,0"/><path class="cls-2" d="M33.93,16.94c.25-3.67,6.12-8.32,12.48-8.56"/><path class="cls-2" d="M-.4,14.51c7.61,2,16.09-2.4,19-5.77C22.06,4.83,25.74.18,31,.54A15.18,15.18,0,0,0,35.78,0"/><path class="cls-2" d="M57.43,140.17c10.15-3.31,21.78,5.75,29.73,6.36s17.62,1.22,21.17-1,6-5.14,9.06-6,33.89-1.22,22.27-26.67"/><path class="cls-2" d="M-.4,375.41c15.26-7.72,37.34,9.69,36.08-8.37"/><path class="cls-2" d="M21.82,368.87c2.66,7.16,13.76,2.66,9.36-3.49"/><path class="cls-2" d="M-.4,384.1c17.86-14.28,32.18,5.12,48.56-12.2"/><path class="cls-2" d="M-.4,393.08C5.65,389.59,11,383,18.33,383.46"/><path class="cls-2" d="M-.4,400.83c9.33-3,14-12.85,24.51-12.78"/><path class="cls-2" d="M18.05,394.29c9.64,5,23.5-3.3,20.93-8.81s-10-.91-7.8,3.4"/><path class="cls-2" d="M-.4,407.13c8.59-8.54,26.59-3.68,36.63-8.25,11.16-5.08,14-22.21,33.13-21.11"/><path class="cls-2" d="M-.4,368.83c13.5-10.91,33.91-8,43-6.75,12.76,1.74,24.87-10.19,13.86-15.6"/><path class="cls-2" d="M52.1,389.34c5.51-6.43,14.32-4.87,21.85-2.3A22.71,22.71,0,0,0,88.26,387"/><path class="cls-2" d="M30.81,351.8c13.86,8.26,10.46-7.52,19.27-13.67s25.45,9.21,32.13,3.3c6.42-5.69-2.3-15-2.3-15"/><path class="cls-2" d="M77.25,335.92s-11.29-5-7.53-14.22,11.29-4,12.39-14.41"/><path class="cls-2" d="M-.4,361.56c15.7-2.37,36.27-14.52,42.59-30.87,7.07-18.26,8-22.94,26.71-31.38"/><path class="cls-2" d="M21.09,336.57C19,341.1,8.63,346.62-.4,347.24"/><path class="cls-2" d="M10.53,339.87c2.94-10.28,15.51-9.64,18.81-13.21s2.94-8.72-2.2-7.07"/><path class="cls-2" d="M-.4,334.61c13-2.52,8.39-20.53,39.93-19"/><path class="cls-2" d="M-.4,325c6.92-2.48,4.51-9.65,9.74-12,6.33-2.85,8.44,1.65,13.12,1"/><path class="cls-2" d="M-.4,310.61c9-4.31,20.91-5.12,29.19-4.05"/><path class="cls-2" d="M20.72,309.77c5.59,2.29,17.8,1.83,23.77-5"/><path class="cls-2" d="M44.21,337.3c10.92-6.06,8.17-19.91,15-26.71s12.67-2.2,15.6-7.7.92-17.81,15-20.29"/><path class="cls-2" d="M-.4,297.16c6.25-2.44,19.52-5.55,22.31-5.47"/><path class="cls-2" d="M24.29,294.44c5.6,2.76,16.07,3.21,15.24-1.93s-6.42-2.38-6.42-2.38"/><path class="cls-2" d="M48.89,274.89c2.85-4.77,11.57.74-5.59,7.8-10,4.1-33.27,6.17-43.7,10.67"/><path class="cls-2" d="M-.4,286.94c8.45-4.83,23.61-7.44,36.44-5"/><path class="cls-2" d="M61.28,273C69.82,256.45,85,252,102.12,256.26"/><path class="cls-2" d="M36.41,272.69c22.12,2.66,49.65-35.7,68.92-30.19"/><path class="cls-2" d="M17.14,260.21c2.57-.55,5.78,2.66,2,6.79C16,270.48,5.05,271.87-.4,269.92"/><path class="cls-2" d="M42.29,260.85c1.83-4.59,11.74-2.29,9.17,2.94s-14.86,1.65-21.75,9c-5.88,6.27-21.46,8.59-30.11,4.38"/><path class="cls-2" d="M10.16,273.88c16.43,1.75,14-10.64,24.87-16.7s21.66,2,30.38-2c5.32-2.48,10-6.51,7.89-10.28s-7.16-1.92-6.88,1.56"/><path class="cls-2" d="M24.94,261.13c2.93-9.55,20.1-17.44,37.81-10.19"/><path class="cls-2" d="M-.4,260c19.5,1.9,25.53-17.47,39.57-16.32"/><path class="cls-2" d="M18.88,244.79C15.74,254,6,255.33-.4,251.36"/><path class="cls-2" d="M-.4,242.94c6.31-3.82,17.56-5.61,24.42-3.84"/><path class="cls-2" d="M-.4,235.93a19.59,19.59,0,0,1,16-1.33"/><path class="cls-2" d="M23.93,244.15c14.77-8.63,36.52-12.3,55.16-8.08"/><path class="cls-2" d="M44.76,240.94c13.49,5.23,21.29-5.05,28.36-2.94"/><path class="cls-2" d="M12.18,228.09c29.74,17.25,39.46-9.09,70.3,5.6"/><path class="cls-2" d="M13.19,220.93c8,7.89,17.35,9.73,26.25,7.43"/><path class="cls-2" d="M24.39,221.48C45.22,230.93,62,217,82.3,229.65"/><path class="cls-2" d="M-.3,227.54C14.84,197.8,44.12,239.1,50.36,211"/><path class="cls-2" d="M-.4,212.27c6.53-4.32,15-2.55,18.82-.79"/><path class="cls-2" d="M-.4,204.45c5.23-2.61,12.89-.95,17,2.35"/><path class="cls-2" d="M42.1,215c-18.93,1.55-25.31-20.62-42.5-21"/><path class="cls-2" d="M-.21,188.53C18.6,186.42,23.19,211.2,43,208.91"/><path class="cls-2" d="M29.62,200.19c22.67-7.25,40.65,19.09,54.15,19.73"/><path class="cls-2" d="M20.62,191.1c2.48,3.58,6.7,4.41,10.37,3.67"/><path class="cls-2" d="M36.23,193.21C18.91,182.22,9.6,189.36-.4,182"/><path class="cls-2" d="M45.07,187.16C32.15,174.47,10.74,183.38-.4,174.77"/><path class="cls-2" d="M25,183.36c2.81-.24,6.12.25,7.1,1.72"/><path class="cls-2" d="M36.26,186.91c8.81,11.14,17.62-.37,37.2,8.2a97,97,0,0,1,24.47,15.42"/><path class="cls-2" d="M54.12,194.87c7.34,11.38,39,25,52.86,28.63"/><path class="cls-2" d="M54.73,218c9.43-3.3,19.72,5.31,27.41,6.61,11.63,2,11.87-4.16,35.25,7.46"/><path class="cls-2" d="M80.31,239.41c13.09-6.73,25.57-4.78,41.11,8.69"/><path class="cls-2" d="M41.76,372.3c19.46-18.72,41.52,1.94,50.17,1.22,11.38-.94,6.88-13.66-1.1-8.07"/><path class="cls-2" d="M61.1,361c7-4.4,17.13-2.08,22.15,1.84"/><path class="cls-2" d="M58.77,342.32c6.49,2.08,8.76,10.78,14.44,11.87,9.31,1.78,7.44-8,1.47-7.1"/><path class="cls-2" d="M83.12,356.39c14.44-6.49,26.8,21.29,40.75,22.39,18.08,1.43,13.5-12.33,6.12-10.89"/><path class="cls-2" d="M126.93,373.64c-6.27-14.82,5.11-13.35,9.79-16.76s4.89-14.44,4.89-14.44"/><path class="cls-2" d="M161.07,366.55c-12.11,7.22-19.21-5.63-15-21.05"/><path class="cls-2" d="M132.07,384.29c16.52,4.65,28.63-3.43,32.92-15.42s-3.43-23.86-10.28-22.39-3.43,13.21.73,15.78"/><path class="cls-2" d="M106.62,375.48c16.23,19.16,36.88,19.5,48.58,12.6,13.25-7.81,17.21-24.42,30.47-24.23"/><path class="cls-2" d="M45.31,382.33c40.14-27.9,53.47,14.78,103.65,14.44,36.34-.24,56.53-30.47,75.5-30.35"/><path class="cls-2" d="M73.46,382.82C92.3,374,99,400.6,141.74,404.48c26.92,2.45,38.18-14,52.62-19.58s24.47-2.57,34-13.09"/><path class="cls-2" d="M61.34,197.07c5.75-.49,16,2.08,25,8"/><path class="cls-2" d="M88.26,231.58c35.73-7.47,36.22,30.34,71.71,31.81"/><path class="cls-2" d="M149,267.31c9.3-2.33,39,1,57,25.82"/><path class="cls-2" d="M152.75,271.1c23.62,2.94,30.59,39.28,61.55,41.61"/><path class="cls-2" d="M94.26,249c12.48-3.91,28.14,2,35.12,6.36s13.09,13.71,17.13,16.77,16.4,4.28,24.72,21.17"/><path class="cls-2" d="M155.81,280.4c.37,6,8.81,20.8,20.68,21.78"/><path class="cls-2" d="M173.8,374.87c7.09,3.91,14.07-1.23,16.52-8.08"/><path class="cls-2" d="M162.54,387.84c14.56.73,34.87-22.64,47.48-26.07s31.69-7.7,20.92,19.46"/><path class="cls-2" d="M214.79,355.53c3.43-1.59,8.2-12.84,17.13-12.84"/><path class="cls-2" d="M171,351.62c45.28,30.1,39.28-15.54,55.31-18.6"/><path class="cls-2" d="M164.62,340.85c38.18,28,42.71-3.3,56.78-10.16"/><path class="cls-2" d="M109.8,253.48c26.31,6.73,9.9,32.39,14.68,40.87,7,12.36,14.93,3.3,25.21,19.09s.74,19.46,15.54,34.14"/><path class="cls-2" d="M153.12,311.85c9.3,8.2,7,29.37,30.71,34.14"/><path class="cls-2" d="M171.23,333c9.3,11.26,33.16,12.6,48.09-8.69"/><path class="cls-2" d="M173.55,326.53c11.14,7.34,28.88,5.75,34.14,1.35"/><path class="cls-2" d="M128.4,262.78c10,2.08,23.95,27.38,30.84,35.73,11.5,13.95,32.55,11,19.33-.86"/><path class="cls-2" d="M155.56,301.2c9.79,14.56,30.23,6.61,37,16.64"/><path class="cls-2" d="M145.9,288c-1.84-1.35-5.14-6.37-5.39-8.57"/><path class="cls-2" d="M133.91,274.89c1.1,10,10.52,21.3,19.09,21.91"/><path class="cls-2" d="M130.11,275.87c2.33,18.36,13.94,30.16,22.76,32.06,15.3,3.31,18.73,11.75,25.82,14.2s18.24,1.71,22.4,1.1"/><path class="cls-2" d="M-.4,157.14c33.94-13,45.87,5.91,52.57,5.42s6.85-7.34,17.5-2.08"/><path class="cls-2" d="M37.48,176.51c10.77,9.18,29,1,45.28,14"/><path class="cls-2" d="M91.93,187.4c1.35.25,4.41.61,6.37,2.33"/><path class="cls-2" d="M110.66,213.1c7.22,15.42,31.93,12.48,39.77,21.05"/><path class="cls-2" d="M50.94,187c17.25.74,53,7.35,75.75,32.8"/><path class="cls-2" d="M95.24,203.92c2.57-.61,9.91.12,12.23,4.28"/><path class="cls-2" d="M123.5,235.74c4.78-2.08,18.36,2.81,20.81,7"/><path class="cls-2" d="M86.55,187.77c5.38,6.61,9.42,7.12,12.85,7.22,8.69.24,9,6.66,16,6.85,8.93.24,22.88,20.68,22.88,20.68"/><path class="cls-2" d="M130.36,242c3.42-.25,10.28,2.57,10.28,2.57"/><path class="cls-2" d="M143.45,253.36c4.9-.25,10.52,1.34,11.75,3.06"/><path class="cls-2" d="M167.31,266a6.51,6.51,0,0,1,4.77.73"/><path class="cls-2" d="M193.38,287.38c1.59,3.3,4.77,5,6.73,5"/><path class="cls-2" d="M140.63,411.69c8-1.4,17.44.72,25.22-1.46,12.23-3.42,25.33-21.05,43.44-24.72s37.07,20.56,51.39,21.17c11.73.5,19.84-6.8,33.7,5"/><path class="cls-2" d="M190.93,306c11.62,25.34,23.86,5.14,36.59,13.71s14.93,22.88,12.11,40.87"/><path class="cls-2" d="M239.39,324.94c4.77,3.92,13-7.83,19.58-.24,7.31,8.39-2.08,18-7.47,16.27s-.49-9.54-.49-9.54"/><path class="cls-2" d="M245.87,345.74c7.59,10.41,20.93,2.57,19.95-9.17s3.3-18.48,15.54-18.36"/><path class="cls-2" d="M276.71,380c-6.12,20.31-25.45,26.92-35.49,12.6s-3.55-28.14,7.59-33.53,19.46-1.47,21.41-11-3.88-20.88,8.08-24.11c18.6-5,39.28-10.28,54.45,1s18.48,47,30.84,56.78"/><path class="cls-2" d="M253.58,386.74c6.36-14.2,30.47-19.58,39.16-4.65"/><path class="cls-2" d="M245.26,392.24c-6.61-13.7,6.73-30.22,25.94-29.36s30.23,10.27,29.37,33.28"/><path class="cls-2" d="M319,411.69c-8.87-17.5-16.46-48.51-31.75-50.53"/><path class="cls-2" d="M326.3,411.69c-14.06-12.48-16.65-37.34-24.63-45.51"/><path class="cls-2" d="M338.92,411.69C326.43,404.54,316,393.25,315.38,384"/><path class="cls-2" d="M367.14,411.69c-16.12-7.39-35.72-16.45-43.68-28.5"/><path class="cls-2" d="M381.63,411.69c-21.14-8.51-48.18-23.14-53.89-35.48"/><path class="cls-2" d="M317.58,324.33c11.5.86,26.92,24.11,29.73,35.24"/><path class="cls-2" d="M279.52,348.68c.74-21.29,33.65-31.08,52.74-5.38s6.86,36.58,51.28,60.69"/><path class="cls-2" d="M298.25,332.41c12.48-.13,31.2,6.73,38.3,25"/><path class="cls-2" d="M315.78,342.24c12,3.43,26.43,37.2,34.51,40.75"/><path class="cls-2" d="M293.84,333.75c.86,7.22,9.3,1.84,13.58,3.92s3.92,10.64,7.59,12.85,12.11,6.12,17,14.19"/><path class="cls-2" d="M316.48,358.23c11.87,2.69,28,32.67,45.4,38.42"/><path class="cls-2" d="M372.52,383.56c5.39,10.15,13.83,10.4,22.4,8.44"/><path class="cls-2" d="M341,328.49c12.73,8.93,13.83,25.58,23.74,37.08s34,18,43.2,33.65"/><path class="cls-2" d="M428.36,411.69c-14.84-20.84-42.6-44.47-53.63-47.47"/><path class="cls-2" d="M421,398c-9.79-15.67-44.54-50.79-63.26-52.26"/><path class="cls-2" d="M325.9,313.56c18.11,8.08,27.9,22.76,35.12,27.66s34.87,19.21,34.87,19.21"/><path class="cls-2" d="M405.44,373.15c8.25-5,29.46,10.85,46.25,38.54"/><path class="cls-2" d="M444.37,411.69c-8.08-12.85-20.33-27.36-25.47-28.5"/><path class="cls-2" d="M459.94,411.69c-9.52-7.63-18.49-17.46-21.46-26.05"/><path class="cls-2" d="M305.22,309.77c29.92-8.08,48.09,22.58,66.26,32.85s45,14.32,59.84,36.16"/><path class="cls-2" d="M263.55,317.66c16.71-8.81,35.61.55,48.83-5.14"/><path class="cls-2" d="M201.33,304.81c13.95-1.65,22.94,13.4,39.83,13.77s25.15-10.46,37.26-9.91"/><path class="cls-2" d="M234,311c4.65-6.85,9.42.25,16.16-.37s22.88-10.4,47.35-6.85"/><path class="cls-2" d="M237.43,297.41c2.32,7.59,11,9.42,18.72,6.85s26.92-5.38,36.22-4.28"/><path class="cls-2" d="M286.62,308.06c5.14,5.62,13.75,2.31,14.81-4.9,1.59-10.89-30.72-31-27.9-36.22"/><path class="cls-2" d="M268.75,297.65c3.68-4.4,15.29,1.79,17-3.91,3.19-10.53-20.19-17.38-18.35-26.68"/><path class="cls-2" d="M277.81,266c2.57,10.16,20.31,25.82,22.39,14.07"/><path class="cls-2" d="M274.26,246.26c2.57,13.58,11.87,25.08,21.42,26.19"/><path class="cls-2" d="M282.58,253c33.16,9.05,15.79,38.79,21.91,45.77"/><path class="cls-2" d="M306.93,277a14.75,14.75,0,0,0,10.4,11.26"/><path class="cls-2" d="M278.3,244.91c22.27-5.26,49.07,33.17,48.46,47s-12,11.26-13.71,7.1,2-6.73,5.88-6.12"/><path class="cls-2" d="M213.57,282.73c4,.61,3.42-10.28-6.73-4.17"/><path class="cls-2" d="M201.45,283.34c5.75-1.35,15.79,4.28,16.77,8.44"/><path class="cls-2" d="M235.84,303.77c-8.57-3.18-18.48-13.34-16.52-19.45s11.38-4.65,16.4,2.81"/><path class="cls-2" d="M223.6,286.15c4.53-1.71,10.28,3.06,11.87,5.63"/><path class="cls-2" d="M453.41,401.05c3.91,7.1,13.83,4.6,12.48-1.1-3.18-13.46-30.84-20.19-31.2-35.36"/><path class="cls-2" d="M430.65,365.69c-9.55-8.32-8.32-32.3-16.16-40.14"/><path class="cls-2" d="M415,347.46c-8.07-10.77-1-23.25-8.19-31s-24.36-2.82-25.46-14.2"/><path class="cls-2" d="M357.1,282.85c.37,31.57,38.55,23.25,47.85,49.8"/><path class="cls-2" d="M365.18,322c16.89,2.44,35.73,23,39.28,29.36"/><path class="cls-2" d="M348.91,265c5,11.38-2.08,24.11,7.09,37.2s37.57,22.39,50.54,39.89,19.82,27.05,26.92,31.08"/><path class="cls-2" d="M386.47,343.91c-23-7.22-43.31-34.75-42.09-54.7,2.93-48.09-16.54-38.52-16.28-45.4.25-6.48,7-2.6,11.51-5.14s3.67-8.07,10.15-7.83"/><path class="cls-2" d="M246.24,267.06c8.44-5.14,2.08-22.15,22.64-20.92"/><path class="cls-2" d="M189.83,272.81c7,4.41,9.3-.12,21.17-.36s8.93,5.5,19.82,5.38,12.85-7.59,12.85-7.59"/><path class="cls-2" d="M134.4,247.85c23.49-.61,40.87,20.44,52.49,20.31s10.52-3.06,20-3.55,37.32,13.71,39-8.56"/><path class="cls-2" d="M178.45,259.72c5.5-1.47,10.89,5.26,18.6,1.35"/><path class="cls-2" d="M151.65,245.28c17.25,15.3,24.84-3.3,47.11,7.34"/><path class="cls-2" d="M179.67,255.56c7.34,2.32,12.73-.49,18.85,1s12.17,8.8,25.57,4.65c26.07-8.08,49.8-35.12,77.34-17.38S332.88,312,354.05,323.6"/><path class="cls-2" d="M496.9,411.69A29.74,29.74,0,0,0,483.27,397c-11.5-5.63-20.44-3.31-30.35-16.16s-8.44-25.2-18.11-29.49"/><path class="cls-2" d="M566.48,0c-25.61,7.18-56.71,30.81-68.16,29.06"/><path class="cls-2" d="M542.31,0c-17,9.24-33.85,27.26-59.9,20.61"/><path class="cls-2" d="M557.67,16.33c6.3-1.53,22.55,3.1,33.46,10"/><path class="cls-2" d="M576.15,46.07a20.3,20.3,0,0,1,15-1.45"/><path class="cls-2" d="M473.48,23.55c22.27-2,30.92,24.68,49.68,30.71,42.21,13.59,66.44-29,28.14-35.73"/><path class="cls-2" d="M520.59,28c4.77,2.2,14.07-5.63,21.9-6.37s24.72-1.1,24,15.91"/><path class="cls-2" d="M465.1,27.1c33.59-.92,41.82,42.11,64.24,41.85,29.59-.34,32.24-16.28,61.79,3.85"/><path class="cls-2" d="M518.14,58.12c35.23,16.09,42.64-13.45,73-6.14"/><path class="cls-2" d="M533.19,73.35c25.59-5.52,42.65-.34,57.94,10.17"/><path class="cls-2" d="M448.76,36.28c55.62-6.43,46.07,27.9,76.72,38.73,29.68,10.47,22.37-5.87,65.65,22.38"/><path class="cls-2" d="M513.18,76.29c6.43,5.69,33.23,5.87,38.73,10.1"/><path class="cls-2" d="M484.55,48.21c21.11,5.32,20.94,34.77,34.88,40.56,20.74,8.63,29.18-1.65,36.52,11.57"/><path class="cls-2" d="M499.6,73.54c5.69,12.11,22.76,39.09,55.62,36.71"/><path class="cls-2" d="M462,43.07c15.61,2.57,25.88,12.3,27.9,17.62s-2.75,8.44.37,13.77,28.27,23.12,22.58,40.93"/><path class="cls-2" d="M413.33,26.18c9.55-.55,7.71,8.81,16.34,13.4s13.95,1.47,19.09,3.49S460.14,53,463.63,54.26s9.54-1.83,14.5,2.57,4.58,16,8.26,20.38,16.33,12.85,19.27,28.63"/><path class="cls-2" d="M456.65,56.28c1.84,10.83,12.48,19.83,16.52,21.66"/><path class="cls-2" d="M477,81.25c14-.92,15.05,32.12,32.49,38.17s24.59-4.22,30.65-5.5,11,1.28,18,.37c6.54-.86,14.05-10.92,33-6.87"/><path class="cls-2" d="M476.47,126c-19.45-7.16-10.27-23.12-2.57-22.21s16.16,28.82,21.3,31.39"/><path class="cls-2" d="M466.56,98c5.51,4.22,11.2-3.67,7.9-10.28S462,77.21,458.12,72.25,450.78,46.74,435.36,51"/><path class="cls-2" d="M445.09,131.91c10.28,3.12,30.83-4,41.3,4.59"/><path class="cls-2" d="M448.94,153.57c8.44,1.1,17.44-4.59,19.46-7.35"/><path class="cls-2" d="M457,157.42c11,.92,23.31-9.54,18.9-16.7s-13.4-5.14-16.7-.37"/><path class="cls-2" d="M452.8,162.93c-5.51,1.47-7.71-2.94-12.12-3.49s-23.49,3.12-38.36-14.5-7.34-31-10.46-36.71S382.13,107.86,382,91"/><path class="cls-2" d="M374.6,89.69c-11-17.44-7-46.07,8.81-55.8s36-5.14,39.28,13.58"/><path class="cls-2" d="M339.91,61.79c7.16,2.2,20.93-1.47,23.68-8.81"/><path class="cls-2" d="M365.79,21c14.5-4.59,35.24.92,39.65,3.31"/><path class="cls-2" d="M309.63,15.54C332.57,3.6,404,17.19,427.47,22.14s45.33,2,44.6-7.52-15.24-7.71-9.91.92"/><path class="cls-2" d="M269.06,55.73c29.74,17.81,39.65.37,49.93-4s25.33-.55,25.33-.55"/><path class="cls-2" d="M354.41,77c-5.87-7-14.68.37-7.34,9s21.48-.18,32.67,17.62,1.84,31.75,13.77,46.25S433,167,433,167"/><path class="cls-2" d="M355.15,96.3c20,18.9,2.57,66.63,72.68,80.21"/><path class="cls-2" d="M408.38,165.13c24.23,11.56,64.06,13.58,82.78-17.07"/><path class="cls-2" d="M439.4,167.7c9,2.2,26.61-1.29,31.93-7.89s20-20.38,32.49-20.93"/><path class="cls-2" d="M480.88,87.12c2.75,13.58,9.36,48.64,34,46.81"/><path class="cls-2" d="M494.1,115.39c7.52,11.93,18.54,15.41,30.1,13s17.8-6.24,31.57-8.44c11.83-1.9,25.29,6,35.36,7.4"/><path class="cls-2" d="M355,261.49c4.78,9,23.31,11,28.82,7.16"/><path class="cls-2" d="M346.34,250.85c14.31,7,17.07-12.12,16.88-19.64s2.57-17.44,8.08-19.83,20.92-13.76,33.41-2.2,7.15,22.58,7.15,22.58"/><path class="cls-2" d="M386.53,255.07c3.86,5.87,8.45,2.39,10.65-7.16s10.65-19.09,17.07-2.38"/><path class="cls-2" d="M387.82,263.7c12.85,11.74,37.26-6.79,21.29-18.54"/><path class="cls-2" d="M341.93,243.69c11.38,4.59,17.25-10.28,14.68-19.09s-.83-19,9.18-19.82c15.42-1.29,25.52-16.16,45.71,4.59"/><path class="cls-2" d="M358.08,197.07c7.71,7.71,24.23-6.24,39.47-.37"/><path class="cls-2" d="M416.27,225.15c1.65,25.33,17.44,53.6,29,59.66"/><path class="cls-2" d="M404,198.17c33,7.52-2,51,54.88,91.41"/><path class="cls-2" d="M373.69,193c19.64-6.42,44.6-3.12,53,19.27s2.75,55.62,31.21,72.51,30.1,6.24,30.1,3.3-6.79-5.87-9.91-2"/><path class="cls-2" d="M442.52,259.48c4.22,13.39,29.92,25.51,29.92,25.51"/><path class="cls-2" d="M426.55,199.82c8.26,7.53,5.14,42.4,14.5,50.29s26.06,13.95,29.18,28.27"/><path class="cls-2" d="M468.76,210.47c-9,3.3-28.45-8.08-30.1,7.89s9.18,16.89,16.89,25.33,8.44,20,8.44,20"/><path class="cls-2" d="M352,266.08c3.85,10.47,17.07,14.87,30.1,10.28s39.46-9.36,45.52-.73-5.87,7.71-7.89,4.77"/><path class="cls-2" d="M357.17,277.28c11.93,17.07,35.05,4.4,46.25,4.59s28.08,7.89,36,7"/><path class="cls-2" d="M384.88,289.94c6.24,4.23,29.92-5.5,41.12,1.29"/><path class="cls-2" d="M430.59,358c-9.92-44.6-38.92-67.18-65.9-65.89"/><path class="cls-2" d="M412.78,295.27c13.4,10.83,29.37-9.36,42.22-1.65s12.66,20.37,21.47,22.76,13-13.4,2-14.14"/><path class="cls-2" d="M422,304.81c11.56,16.15,21.66-18.9,38.18.19"/><path class="cls-2" d="M428.75,314.36c5.32,3.12,17.81-3.49,18.91-9.91"/><path class="cls-2" d="M435,319.5c9.73-.55,22.58,7.71,26.07,15.78"/><path class="cls-2" d="M418.47,303.34c4.22,20,23.31,22.58,31,27.35s21.66,28.45,40.75,28.64"/><path class="cls-2" d="M429.3,327c6.61,10.65,19.82,2,26.07,12.3"/><path class="cls-2" d="M396.63,296.55c18-4.95,27.53,33.23,36.16,40.2s31-.18,40.38,30.65"/><path class="cls-2" d="M448,363.37c6.24,23.31,16.89,18.9,13.77,12.84"/><path class="cls-2" d="M511.17,393.83C520.73,383,549.68,382,554,411.69"/><path class="cls-2" d="M566.5,411.69c-7.65-13.4-23.91-29.22-32.76-29.79"/><path class="cls-2" d="M589.69,411.69c-7.43-15.51-26.16-29.25-36.67-32"/><path class="cls-2" d="M433.16,341c9.36,14.87,13.58,6.61,21.29,12.12s16.15,27.71,31.75,26.79,12.48-13.21,4.59-12.29"/><path class="cls-2" d="M465.64,341.52c5,.19,6.25,3.49,7.53,5.33"/><path class="cls-2" d="M481.25,352c3.3,2.93,9.17,4.4,12.29,3.12"/><path class="cls-2" d="M472.07,356.21c6.61,8.81,25.88,7.89,34.87,4.4"/><path class="cls-2" d="M442.52,355.29c18.54,6.24,23.58,24.58,44.23,31,28.27,8.81,32.68-14.68,52.68-8.81s25.33,21.66,25.33,21.66"/><path class="cls-2" d="M502.72,384.66c.37-9.36,12.48-18.91,28.09-17.07s17.25,8.07,29,5.69,11.74-19.28,1.1-18"/><path class="cls-2" d="M518.14,365c8.44-13.77,28.63,9.91,44.42.36"/><path class="cls-2" d="M591.13,393.6a32.41,32.41,0,0,0-26.55-14.82"/><path class="cls-2" d="M591.13,376.9a21.81,21.81,0,0,0-5.62-4.17c-4.59-2-9.55,1.1-12.3-7.35"/><path class="cls-2" d="M544,360.79c11.53-13.56,35.43-17.26,47.11,2.07"/><path class="cls-2" d="M527.32,356.57c19.58,9.88,19.12-29.81,63.81-7.43"/><path class="cls-2" d="M493.54,313.44c21.66-.73,7.53,42,44.06,38.73"/><path class="cls-2" d="M488.77,304.26c24.41.92,34,35.24,41.67,37.26"/><path class="cls-2" d="M507.13,304.08c15.6,1.28,14.86,28.08,24.41,29.37"/><path class="cls-2" d="M531.72,349.6c3.67-12.12,21.11-8.08,27.17-11.56s3.67-9.18-2.2-7.16"/><path class="cls-2" d="M540.53,331.79c-12.85-56.53-60-21.65-75.07-37.07"/><path class="cls-2" d="M497,289.21c31-11.93,43.69,32.31,50.85,31.94s6-10.46,6-10.46"/><path class="cls-2" d="M478.49,278.93c16.34,8.08,33.59-3.12,28.09-14.32"/><path class="cls-2" d="M463.81,253.6c2,5.51,6.24,14.5,19.64,8.63"/><path class="cls-2" d="M475.92,267.74c9.18,3.12,29.92-9.73,31.94-17.44"/><path class="cls-2" d="M504.37,260.21c6.8-3.67,12.12-13.22,5.88-18.17"/><path class="cls-2" d="M508.23,279.12c5.32,9.91,16.15,5.5,15.78,2s-4.58-3.3-6.79-1.1"/><path class="cls-2" d="M516.12,274.34c2.39-8.81-3.85-9.36-3.3-15s5.5-8.63,5.32-15.6-10.46-12.11-10.28-14.87"/><path class="cls-2" d="M591.13,339.87c-8-1.62-21-7-25.45-18-5.5-13.76-12.66-20.19-22.57-22s-24.05-25.15-21.3-49.56"/><path class="cls-2" d="M571.19,319.86c3.3,7.35,15.41,11,20.37,11"/><path class="cls-2" d="M554.67,294.53c5.69,14.5,27.35,23.87,36,22.76"/><path class="cls-2" d="M567.33,297.65c-41.3-16-41.66-80.94-79.66-85.35"/><path class="cls-2" d="M529.15,270.49c3.49,16.7,14.5,26.25,18.91,24.23s2.2-6.06-1.47-6.43"/><path class="cls-2" d="M591.13,303c-12.46-2.63-43.47-23.71-51.51-38.19"/><path class="cls-2" d="M591.13,296.37c-15.08-6.81-41.13-22.81-48.39-33.78"/><path class="cls-2" d="M591.13,290c-4.15-1.72-14.78-7.92-20.49-12.12"/><path class="cls-2" d="M514.47,223.13c13.95-.92,27,39.46,40,44.6,9.85,3.88,24.51,6,36.64,14.62"/><path class="cls-2" d="M591.13,276.43c-10.79-3-25-9.2-28.38-16"/><path class="cls-2" d="M516.3,218.54c12.3-9.54,18.18,5,20,11s8.63,22.94,19.27,29.36"/><path class="cls-2" d="M591.13,271.31C566.25,262,545,240.73,540.54,226.44"/><path class="cls-2" d="M591.13,256.75c-7.65-4-17.73-5.05-28.93-11.59-16.34-9.55-11.2-21.29-21.85-24.6"/><path class="cls-2" d="M504,211.94c8.26,9.36,18-6.75,27.71-5.51,17.26,2.2,23.5,36.53,43.69,39.28"/><path class="cls-2" d="M489.87,207.35c9.92,9.91,17.26-18.18,42.59-7.53s23.86,28.63,45,29.19"/><path class="cls-2" d="M591.13,248.75c-10.87-11-28.56-7.78-38.11-30.57"/><path class="cls-2" d="M562.75,219.46c12.7-.48,24.14,8.06,28.38,14.24"/><path class="cls-2" d="M554.85,200.55c13.72-.14,28.82,8.69,36.28,16.55"/><path class="cls-2" d="M529.52,160.17c23.35-6.51,42,26.55,61.61,33.87"/><path class="cls-2" d="M445.27,200.37c43,19.27,58.55-17.44,79.11-15.6s22.21,29,49.19,31.57"/><path class="cls-2" d="M474.09,196.33c20.37-2.38,32.85-31.75,53.41-31S560,199.64,587.71,198"/><path class="cls-2" d="M520.71,108.6c2.94,5.32,8.26,5.32,12.48,3.67"/><path class="cls-2" d="M529.34,98c3.12,6.79,16.52,8.26,18,4s-5-3.67-5-3.67"/><path class="cls-2" d="M553.38,104.56c9.18,5.32,19.83-.74,19.09-7s-12.85-8.26-11.75-.91"/><path class="cls-2" d="M516.49,193c7.16-4.77,18,1.47,20.19,4.77"/><path class="cls-2" d="M454.81,178.53c43-6.79,35.25-60,137.12-41.67"/><path class="cls-2" d="M361.57,153.57c20.56-.74,36.71,34.5,80,30.1s63-34.69,63-34.69"/><path class="cls-2" d="M404.52,179.81c47.36,21.66,78.3.12,94.17-17.07,36.19-39.21,68.29-15,92.44-1.63"/><path class="cls-2" d="M466.75,187.89C501,186.61,533.6,115,591.13,180.11"/><path class="cls-2" d="M346.52,225.52s4,.55,3.86-4.77-11.17-2.47-5.33-14.32c13.77-27.9,45.59-20.21,85-11.38,31.94,7.16,47.35,11,67.55-5.14s29.36-24.6,46.25-10.1c12.33,10.58,31.39,22.05,47.29,27.25"/><path class="cls-2" d="M321.19,156.69c62.59-16.89,57.27,49.37,155.47,34.32"/><path class="cls-2" d="M350.56,80c2.75,7.89,12.48,4.59,12.48-3.3s-17.62-18.72-33.59-4.77"/><path class="cls-2" d="M327.61,176.51c-5.87-15.23,10.83-20.56,22-14.68s7.16,12.29,34.69,17.25"/><path class="cls-2" d="M267.41,204.78c58.92,16.15,71.58-27.54,106.83-22.21"/><path class="cls-2" d="M327.61,215.42c2.94,0,9-3.48,11.2-6"/><path class="cls-2" d="M221,244.06c19.27-.55,8.63-25,45.7-18.36"/><path class="cls-2" d="M232.72,224.42c42.4-20.93,94.34,41.85,105.72-5.33"/><path class="cls-2" d="M77.07,207.35c31.2,8.44,62,31.75,81.31,35.05s17.07-1.83,28.63,0,14.68,6,23.87,6.61c20.55,1.47,50.1-15,60.75-14.86"/><path class="cls-2" d="M243.91,236c24.42-12.11,80.4-8.44,93.8,53.41"/><path class="cls-2" d="M204.45,244.61c18.54,3.67,11.38-29.74,34.69-28.09"/><path class="cls-2" d="M315.87,222c2-5.51,10.64-2.75,10.28,1.29S313.3,233,295.31,226.8s-57.09-31.75-73.79-6.42"/><path class="cls-2" d="M363.41,186.05C345.79,187.89,326,219.46,296,218.54c-39.19-1.2-80.21-49.74-97.46-17.8"/><path class="cls-2" d="M245.2,183.67c.55,15.05,15.6,17.07,25.51,15.23s31.94-2.93,38.18,2.94"/><path class="cls-2" d="M190.32,238.55c9.91,6.24,17.07.92,19.09-2.57s-.74-11.75,1.1-14.5,5.5-1.28,6.79-3.3-.37-6.61,2.2-9.73,6.24-2.57,7.16-3.67a9,9,0,0,1,5.87-3.67"/><path class="cls-2" d="M195.46,234.33c9.36.73,8.62-6.61,8.07-9s2-7.89,4.78-9.17,1.28-12.48,12.29-17.07"/><path class="cls-2" d="M165.17,235.06c14.32,6.24,26.41-1.44,27.17-6.24,2.2-13.95,9.72-11.75,10.83-18.35s2.93-13.77,11.56-15.05"/><path class="cls-2" d="M253.09,186.42c2.76,10.28,14.87,7.16,23.5,4.22s25.33,2.94,25.33,2.94"/><path class="cls-2" d="M335.51,169c5.87-5.69,16.33,5,12.29,11.57s-20.55,10.28-34.32-10.46-7.71-45.53-30.1-46.26"/><path class="cls-2" d="M287.23,156.87c9.55,5,13.4,36.16,35.06,38"/><path class="cls-2" d="M256.21,125.48c39.83-.18,50.11,62.41,65.9,63.14"/><path class="cls-2" d="M256.58,131.72c9.91-1.1,27.53,5.88,36.71,25"/><path class="cls-2" d="M272.73,169.53c4.22-.36,7.71-7.7,5.14-10.64"/><path class="cls-2" d="M286.13,168.62s-1.65-13.22-6.42-15.05"/><path class="cls-2" d="M271.81,145.67c-2-5.5-9.54-7.16-9.54-7.16"/><path class="cls-2" d="M262.64,86.75c15.05-6.6,39.64,4,27.35,11.2"/><path class="cls-2" d="M305.77,99.79c.55-6.06,2-7.35,5.69-7.35s6.79,3.67,9.18,3.31S327.06,93,330.37,93s9.73,11,13.4,11"/><path class="cls-2" d="M355,133.74s9,15-.73,16.52-10.37-3.06-21.48-4.95c-16.15-2.76-23.86-28.27-33.4-29-4.75-.37-11.2-.92-14.69-2.21s-8.81-13-23.49-11.38-21.29-3.3-26.43-2.57-33.23,10.65-33.23,10.65"/><path class="cls-2" d="M212,121.44c8.44,8.45,11.74-1.1,14-3.3s5.5,2.39,18-2.75"/><path class="cls-2" d="M209.59,129.89c3.85,9.91,15.42,2.2,24.78-5.33s31.57-15.78,51.58,6.06"/><path class="cls-2" d="M335.14,140.53c-9.36.37-10.28-3.67-8.81-7.89s-2.2-9.54-2.2-13.21,7.34-14,18.9-1.11"/><path class="cls-2" d="M321.56,130.81a6.46,6.46,0,0,1-6.06-6.25c.18-2.2,4-4.58,3.85-6.79s-6.42-7.16-.18-8.07"/><path class="cls-2" d="M349.64,106C334.77,77.58,297.33,83.82,296,80.51"/><path class="cls-2" d="M370.38,150.63c-13.77-3.86-4.95-44.79-25.88-61.67s-56.72-19.83-78-15.61S241,84,227.39,83.27s-27.16-18.54-67-4.41"/><path class="cls-2" d="M196,69c3.3-.55,8.44-4.77,8.81-7.71"/><path class="cls-2" d="M207.39,69.32c5.32,9.72,22.94,4.22,22.94-1.47s-10.28-7.9-12.48-3.12"/><path class="cls-2" d="M165.35,86c2.21,8.26,20.93,7.89,21.11-.18s-12.3-7.71-13.58-1.66"/><path class="cls-2" d="M245,94.46c19.45-4.95,31.57,9.73,47.9,10.83s47.36-11,62.23,16.52"/><path class="cls-2" d="M232.35,149.71s-10.65-.37-11.38-6.79,14.68-18.36,28.82-20.19"/><path class="cls-2" d="M261.54,188.81c1.46-6.79-6.8-12.85-11.2-14.69s-9-9.91-13-13.58-23.87-13.77-26.8-23.86"/><path class="cls-2" d="M218.77,152.1c4.59,11.38,15.6,5.14,24,22.76"/><path class="cls-2" d="M208.12,183.85c5.51-8.07,24.78,10.83,31,2.94s-9.18-22.58-12.3-21.11,2.57,11.75,6.06,13.77"/><path class="cls-2" d="M200.23,95.56c12.66,19.28,94-48.82,99.12,3.67"/><path class="cls-2" d="M95.05,84.18c70.12-1.65,95.82-29.92,124.45-29.36s47,15.78,84.07,13.39,71.77-34.14,81.68-43.5"/><path class="cls-2" d="M135.44,84.37c15.23-4.22,30.28,13.68,37.62,13.58,13.59-.18,20.38-15.6,47-5.87"/><path class="cls-2" d="M150.12,91.16c11.38.92,22.76,22,32.67,21.29s12.85-6.61,7.71-8.26"/><path class="cls-2" d="M197.29,127c9.06,1.1,7.83,10.52,9.55,12.24s3.79,1.34,5,4.89,0,9.91,1.59,13,5.88,7.1,7.35,9.18,1.83,11.38,4.77,12.48"/><path class="cls-2" d="M188.85,219.22c7.46-5.27,2.2-21.42,4.65-27.05s9.67-10,10.89-13.82-1.84-10.65,6.12-17.87"/><path class="cls-2" d="M187,183.61c-.12-11.51,6.49-12.12,7.1-16.4s-1.1-16.52,3.92-21.9"/><path class="cls-2" d="M189.71,165c.61-4.41,1.83-7.59,2.2-11s-.86-5.26.37-7.34a10,10,0,0,1,3.54-3.3"/><path class="cls-2" d="M187.63,150.57c.24-4,2.32-7.34,4.52-8.2"/><path class="cls-2" d="M185.42,76.9c6.61-2,9.3,8.08,15.18,8.08s4.65-2.69,8.07-2.57S216.26,88,221,88.65s4.16-2.08,6.85-2.57,5.51,2.94,10.53.12"/><path class="cls-2" d="M121.91,91.34c23.74-8.93,43.08,26.56,67.31,26.92s43.31-12.72,76-5.38"/><path class="cls-2" d="M12.39,174.31c18.6-12.85,36.35.85,42.71,2.2s40.14-.61,60.57,21.54"/><path class="cls-2" d="M143.33,220.44c1.59,5.26,16.76,18.23,23.13,19.33"/><path class="cls-2" d="M149.69,219.83c4.65,10,19.46,14.07,21.66,5.63"/><path class="cls-2" d="M131.09,206.49c2.33,8.81,11.5,12.48,17.87,8.81"/><path class="cls-2" d="M122.4,200.86c5.51-3.67,16,2.57,17.87,8.32"/><path class="cls-2" d="M110.29,189.11c15.78.62,44.42,19.58,50.41,33.65"/><path class="cls-2" d="M120.08,179.57c20.19.61,43.93,34.38,46.5,43.44"/><path class="cls-2" d="M139.29,176.51c11.5-1.22,15.91,8.44,19.7,14.19s13,9.79,15,15.79"/><path class="cls-2" d="M131,178.83c5.63,6.74,13.09,3.68,18.23,9.18s8.81,13.83,12.12,17.13,6.48,3.43,9.66,8.2S177,229.5,183.1,230"/><path class="cls-2" d="M88.14,178.35c10,4.16,19.33,1,26.31,3.67s10.65,6.85,14.81,8.07,15.17,6.86,18.72,12"/><path class="cls-2" d="M111,185.32c2.7.12,6.37,1.1,7.47,1.84"/><path class="cls-2" d="M105,176.63s-10.89-6.61-18.36-7.1S71,171.61,61.83,171.86,45,167.09,29.77,165c-13.17-1.81-20.35,4-30.17,2.09"/><path class="cls-2" d="M79.7,175.29c4.16-1.59,12.23-1.72,14.68.73"/><path class="cls-2" d="M89.85,166.48c3.67-.37,9.3,2.2,11.26,4"/><path class="cls-2" d="M108.45,175c2.21,1.71,5.88,2.08,7.35,1.47"/><path class="cls-2" d="M75.17,167c15.3-6.86,27.29-4.17,33.65,1.22s15.54,8.69,26.68,4.89,24.71,1.35,27.41,4.65"/><path class="cls-2" d="M125.59,171.86c-13.71,0-13.34-13.22-33.9-13.09s-18.6,9-30.35,9.17S38,158.77,28.18,157.79c-8.69-.87-19.78,5.77-28.58,4.55"/><path class="cls-2" d="M123.26,166.48c9.91,5.75,16.4-6.37,32.67-4s29.49,23.74,25.7,31.94-16,.12-10.65-6.25"/><path class="cls-2" d="M305.47,21.23c-6.86,8.81-2.09,9.78,4.16,7.22s14.44-8.69,23.74-8.94"/><path class="cls-2" d="M306.69,25.26c16.4-15,42.71-12.36,57.14,1.35"/><path class="cls-2" d="M349.15,44.6c8.32-1.47,17.6-10.45,7.1-18.11C325.41,4,290.78,64.3,261.66,50.35"/><path class="cls-2" d="M312.32,38.72c9.79-6,35.61-16.76,40.38-6.24s-28.15,7.83-35.85,14.93"/><path class="cls-2" d="M238.53,53.41c14.93,3.18,19.7-12.48,36-8.93"/><path class="cls-2" d="M282.46,42s11.5,1.34,12.24-6.61S285.15,20.49,271,28.81,254.68,50,235,50.59"/><path class="cls-2" d="M234.12,39.7c-5.62-6.12-4.16-15.9,11.14-19.21s11.5,4,21.9,3.79,10-6.24,30.47-.61"/><path class="cls-2" d="M198.27,42c21.17,3.3,20.68-14,32.31-16.4"/><path class="cls-2" d="M231.56,44c-2.57-9.3-8.69-5.76-13.47-1.11-3.8,3.71-16.39,7.59-36.22-1.1s-30.59-8-33.4-7.46"/><path class="cls-2" d="M160.21,30.65c12.36,6.12,40.63,10.28,53.11,3.79"/><path class="cls-2" d="M157.4,20.49A24.81,24.81,0,0,1,187.14,19"/><path class="cls-2" d="M147.37,23.31c5.87-11.26,17-19,31.32-14.44s10,9.3,19.09,7.71S211,17.19,211,20s-4.16,5.63-7.34,3.43"/><path class="cls-2" d="M150.06,29.18c17.86-9.3,26.8,2.94,49.07.49s44.78-20.56,67.54-11.14"/><path class="cls-2" d="M247.83,27.34c9.3,12.49-11.5,24.11-28.76,23s-34.5.73-51.64,12-57.75,24-102.54,16.15"/><path class="cls-2" d="M-.4,151.92C17.68,141.1,45.94,151,77,154c41.21,3.92,82.23-.49,80.52-27.16"/><path class="cls-2" d="M111.51,159.62c13.46,8.94,23.13-7.22,37.45-8.44"/><path class="cls-2" d="M154.1,133.93c-3.67-3.06-6.12-2.08-7.59-1S141.25,147.63,124,147"/><path class="cls-2" d="M-.4,137.66c15-11.63,31.46,4.74,45.35,1.77"/><path class="cls-2" d="M38.58,135.39c26.68-13.7,60.57,23.13,52.25-17"/><path class="cls-2" d="M145.9,155.83c10.52,1,15.54-7.1,15-14.19s3.79-4.65,3.06-13.59"/><path class="cls-2" d="M-.4,142.74c12.64-4.77,21.85.06,30.3.49,9.66.48,11.87-1.23,21.17-.37s16.52,6,22.63,6.73,5.75-.61,12.61-.49,13.09,7.22,27-1.35"/><path class="cls-2" d="M77.49,126.34c-1.1-3.55,1-9.3,4.41-10.77"/><path class="cls-2" d="M59.38,119.85c4.78-9.3-2.69-14.19-7.83-14.31s-13.09,5.26-3.67,10.4"/><path class="cls-2" d="M-.4,131.88c13.77-.68,34.87-10.41,44.12-10.19,10.53.24,31,11,36.84,10s6.36-8.07,3.91-10.64"/><path class="cls-2" d="M16.92,124c17.75-4.16,18.6-27.53,42.34-24.47"/><path class="cls-2" d="M-.4,123.91c27,2.73,35.53-48,79.37-32.32"/><path class="cls-2" d="M14.6,114.22c-3,3-8.31,5-15,4.84"/><path class="cls-2" d="M29,99.91c-3.88,3.87-19.26,12.52-29.44,9"/><path class="cls-2" d="M-.4,100.34c27.94,8.25,43.79-27.55,90-12.3"/><path class="cls-2" d="M18.76,90.24C34.67,93.91,38.7,76.9,64.52,74S100,80.33,97.81,72"/><path class="cls-2" d="M-.4,88.31c4.82,1,18.84-2.44,26.75-2.11"/><path class="cls-2" d="M-.4,82.72c19.35,3.4,43.82-2.56,54.77-17,11.26-14.81,36-31.94,48-11.87"/><path class="cls-2" d="M71.87,108.11c13.21-9.3,39.89-8.57,45.39-6.73s14.93,5.63,18.6,4.89,9.43,2.2,10.65,4.53,5.38,6.36,12.6,6.85,8.69,1.47,10.65,2.33"/><path class="cls-2" d="M76.64,100.4c10.64-8,25.82-2.21,31.08-2.33s12-2.93,19.58-2.2,13.58,7.71,18.84,8.93S160.58,107.37,165,111s10.52,11.26,15.29,11.38,24.11.49,30.47,3.67"/><path class="cls-2" d="M112,66.13c-4.53-4-4.28-10.89,2.45-13.21"/><path class="cls-2" d="M55.22,72.38c4.78-.74,4-6.12,8.94-7.22S77.25,63,76.88,68.46"/><path class="cls-2" d="M70.64,58.18c3.55-5.87,7.34-6,9.55-5.38s4,3.67,7.71,3.54,3.79-2.08,6.36-2.2,5.38,6.12,5.38,6.12"/><path class="cls-2" d="M77.49,60.87C88,59.16,107,71.76,122.4,70.54c11.35-.9,24.84-5.38,27.29-6.85"/><path class="cls-2" d="M134.15,66.5c3.67-.24,10.16-2.57,13.09-5"/><path class="cls-2" d="M112,47.29c-4.53,3.55-8.81.86-8.81-2.81s6.49-5.27,15.18-1.23,14.27,4.46,22.27.86c11.13-5,25.94,2.69,37.32,2.08"/><path class="cls-2" d="M153.73,63.08c2.69,1,5.26-4.41,8-5.76s4.53.37,6.86,0-.74-2.57,1.59-3.3,5.63.49,6.6-.12.62-3.18,2.21-3.67,8.93-.62,9.79-1"/><path class="cls-2" d="M84.22,40.44c7.71-5.26,23.74-9.67,35.49-.13"/><path class="cls-2" d="M56.33,57.45C47.8,71.71,18.46,81.23-.4,77.21"/><path class="cls-2" d="M64.77,48.64c9.3-2,12.72-14.08,30.83-18.11s23.5,0,25.46,1.59,1.83,6.36,4.4,6.73,11.5-3.31,18-1.84"/><path class="cls-2" d="M34.18,67.48C43.35,65,71,24.77,100.5,25.75"/><path class="cls-2" d="M35.28,53.16c3.91.49,10.89-3.06,12-6.48"/><path class="cls-2" d="M18.88,73.35c10.4.13,13.22-15,20.68-15.9"/><path class="cls-2" d="M118.73,19.63c7.59-.24,16.28,12.85,22.76,12.24"/><path class="cls-2" d="M132.31,21.71c2.45,3.55,8.45,2.94,10.28.13"/><path class="cls-2" d="M-.4,72.42C9.46,76.86,25.83,68,27.94,59.53c2.2-8.81,8.32-18.85,19.33-18.48s14.55-6.43,19.46-13.22c6.73-9.3,48-16.76,59.1,2.69"/><path class="cls-2" d="M40.78,35.54c8.57,2.82,16.89-7,22.64-13s22.4-9.3,42.71-8.32,28.39,5.14,41.85-3.06S171.11,3,178.2,4.58"/><path class="cls-2" d="M0,66.62c23.25-1,24.72-34.87,58.61-49.56s59.72-3.54,75.26-7.46A64.55,64.55,0,0,0,154.51,0"/><path class="cls-2" d="M24.63,26.12c7.47-4.53,19.46-9.06,21.91-11.75C48.16,12.59,52,4.71,61.88,0"/><path class="cls-2" d="M29,29.91c6.48-1.59,19.7-9.17,22.76-12.85s22.76-12.48,41.48-12A83.77,83.77,0,0,0,123.48,0"/><path class="cls-2" d="M17.17,40.19s-7.1-.61-7.46-8.07,12.23-9.06,15.66-12.24,1.59-5.63,5.38-8.2A223,223,0,0,1,52.1,0"/><path class="cls-2" d="M15.21,30.89c8.45-1.59,11.38,2.94,8.08,12.24C20.31,51.51,9,59.5-.4,57.76"/><path class="cls-2" d="M-.4,26.73C7.15,27,14.83,18.65,19,14.25,22.13,11,33.22,4.35,42.51,0"/><path class="cls-2" d="M-.4,354c21.32-4.51,35.77-15.86,40-26.21,4.87-11.84,4-16.89,11.57-25.89s15.51-3.67,20.56-11.65,16.69-22.93,25-17.53c8.81,5.69-1.1,16.52-1.1,16.52"/><path class="cls-2" d="M66.36,115.69c3.55-3.42,13-2,16.27-3.67s7.47-4.77,12.36-5.14,12.12,2.57,14.56,2.21,6.25-3.19,16.52-.74,12.24,10.89,10.89,15.54-9.66,6.73-11.13-.12"/><path class="cls-2" d="M91.57,142.86c4.16-.37,5.87-3.79,6.11-8.69s3.06-3.43,3.19-6-2.33-5.26-1.84-7.46,3.67-2.45,3.92-4.65"/><path class="cls-2" d="M185.79,225.82c-6.73-8.81-6.73-20.31.24-28.26s2.7-12.73,4.78-17.87,4.77-1.22,6.48-5.26-.73-13,.86-18.23,6.24-5.63,7.22-8.81-2.45-6.12-3.06-7.84-1-4.52-3.18-5.38-6.73.37-8.32-2.94-4.41-5.26-9.55-4.89-9.42-.61-10-2-6.37-2.81-8-2.08"/><path class="cls-2" d="M178,278.93c9.79,1.59,8.93,12.85,14.93,15.91s12.85,1.59,17.25,3.18,12.73,13,16.4,9.06-3.67-11.38-6.24-8"/><path class="cls-2" d="M42.93,286.18c12.94,2.3,28.8-18.46,42.4-23.22,13.12-4.59,23-5.07,28.63-.46,15.88,13,2.11,24.42,2.11,34.7,0,11.38,11.66,7.7,11.66,7.7"/><path class="cls-2" d="M-.4,304c12.32-11.17,29.41-.32,39.66-2.92,11.19-2.85,12.39-11.29,17.53-14.41s8.27-1.41,11.56-3c6.33-3.12,15.3-25.52,36.34-18.45,9.72,3.27,12.55,11.18,10,16.22-10.27,20.32,1.47,37.2,13.82,29"/></g></svg>