<?xml version="1.0" encoding="UTF-8"?>
<svg xmlns="http://www.w3.org/2000/svg" width="180.6mm" height="180.6mm" version="1.1" viewBox="0 0 512 512">
  <!-- Generator: Adobe Illustrator 30.3.0, SVG Export Plug-In . SVG Version: 2.1.3 Build 182)  -->
  <defs>
    <style>
      .st0 {
        fill-rule: evenodd;
      }
    </style>
  </defs>
  <g id="Ebene_1" image-rendering="optimizeQuality" shape-rendering="geometricPrecision" text-rendering="geometricPrecision">
    <path class="st0" d="M145.2,0h221.5C406.7,0,443.1,16.3,469.4,42.6c26.3,26.3,42.6,62.6,42.6,102.6v221.5c0,40-16.3,76.3-42.6,102.6-26.3,26.3-62.6,42.6-102.6,42.6h-221.5c-40,0-76.3-16.3-102.6-42.6C16.3,443.1,0,406.7,0,366.8v-221.5c0-40,16.3-76.3,42.6-102.6C68.9,16.3,105.3,0,145.2,0ZM202.9,215.3c-4.1.2-7,1.5-8.6,4.1-4.5,6.8,1.6,13.5,5.9,18.2,12.2,13.4,42,45.5,48,52.5,4.6,5,11,5,15.6,0,6.2-7.2,37.5-40.8,49.1-53.8,4-4.5,9-10.7,4.8-16.9-1.7-2.5-4.6-3.9-8.6-4.1h-24.7v-61.2c0-6.5-5.4-11.9-11.9-11.9h-33c-6.5,0-11.9,5.3-11.9,11.9v61.2h-24.7ZM123.4,325c-3.8-15.6,19.9-21.4,23.7-5.7,1.6,6.5,2.9,13.1,4.2,19.7,2.4,12.3,4.2,20,8.8,23.9,4.8,4.1,13.9,5.5,31.4,5.5h132.1c16.1,0,24.5-1.5,28.9-5.5,4.3-3.8,5.9-11.4,8.1-22.9v-.2c1.3-6.8,2.6-13.6,4.3-20.3,3.8-15.6,27.4-9.9,23.7,5.7h0c-1.5,6.4-2.8,12.8-4,19.3h0c-3.2,17.1-5.8,28.7-14.5,37-8.6,8.1-22.1,11.5-46.5,11.5h-132.1c-25.5,0-39.5-3.1-48.5-11-9.2-8.2-12-20.1-15.6-38.1-1.2-6.2-2.5-12.5-4-18.6h0ZM145.2,26.2h221.5c65.5,0,119,53.6,119,119v221.5c0,65.5-53.6,119-119,119h-221.5c-65.5,0-119-53.6-119-119v-221.5c0-65.5,53.6-119,119-119h0Z"/>
  </g>
</svg>