<?xml version="1.0" encoding="UTF-8"?>
<svg xmlns="http://www.w3.org/2000/svg" width="180.6mm" height="165.3mm" version="1.1" viewBox="0 0 512 468.6">
  <!-- Generator: Adobe Illustrator 30.3.0, SVG Export Plug-In . SVG Version: 2.1.3 Build 182)  -->
  <g id="Ebene_1" image-rendering="optimizeQuality" shape-rendering="geometricPrecision" text-rendering="geometricPrecision">
    <path d="M97.6,0h316.7C441.2,0,465.6,11,483.3,28.7c17.7,17.7,28.7,42.1,28.7,69v273.3c0,26.8-11,51.3-28.7,68.9-17.7,17.7-42.1,28.7-69,28.7H97.6c-26.8,0-51.3-11-69-28.7C11,422.2,0,397.8,0,370.9V97.6c0-26.9,11-51.3,28.7-69C46.4,11,70.8,0,97.6,0ZM28.6,123h59.8L124.6,30.8c.3-.7.6-1.4,1-2.1h-28c-19,0-36.2,7.8-48.7,20.3-12.5,12.5-20.3,29.8-20.3,48.7,0,0,0,25.3,0,25.3ZM150.7,28.6l-37.1,94.3h108.7l36.1-92c.3-.8.7-1.6,1.1-2.4h-108.9ZM284.4,28.6l-37.1,94.3h105.8l36.2-92.2c.3-.7.6-1.4,1-2.1h-106,0ZM415.5,28.6l-37.1,94.3h104.9v-25.3c0-18.9-7.8-36.2-20.3-48.7-12.3-12.3-29.1-20-47.6-20.3ZM483.4,151.6H28.6v219.3c0,19,7.8,36.2,20.3,48.7,12.5,12.5,29.8,20.3,48.7,20.3h316.7c18.9,0,36.2-7.8,48.7-20.3s20.3-29.8,20.3-48.7v-219.4h0ZM206.5,293c-4.1.2-7,1.5-8.6,4.1-4.5,6.8,1.6,13.5,5.9,18.2,12.2,13.4,42,45.5,48,52.5,4.6,5,11,5,15.6,0,6.2-7.2,37.5-40.8,49.1-53.8,4-4.5,9-10.7,4.8-16.9-1.7-2.5-4.6-3.9-8.6-4.1h-24.7v-61.2c0-6.5-5.4-11.9-11.9-11.9h-33c-6.5,0-11.9,5.3-11.9,11.9v61.2h-24.7Z"/>
  </g>
</svg>